
<svg width="12px" height="16px" viewBox="0 0 12 16" version="1.1" xmlns="http://www.w3.org/2000/svg" xmlns:xlink="http://www.w3.org/1999/xlink">
  <!-- Generator: Sketch 48.1 (47250) - http://www.bohemiancoding.com/sketch -->
  <desc>Created with Sketch.</desc>
  <defs></defs>
  <g id="Design" stroke="none" stroke-width="1" fill="none" fill-rule="evenodd">
    <g id="01-Home-New" transform="translate(-688.000000, -1615.000000)" fill="#222222">
      <g id="Group-31" transform="translate(0.000000, 1160.000000)">
        <g id="Moi-nhat" transform="translate(370.000000, 70.000000)">
          <g id="Group-23" transform="translate(0.000000, 220.000000)">
            <g id="Action/Active" transform="translate(10.000000, 165.000000)">
              <g id="16x16/bookmark-active" transform="translate(306.000000, 0.000000)">
                <g transform="translate(2.000000, 0.000000)" id="Shape">
                  <path d="M9.64727885,0 L2.10504808,0 C0.944307692,0 0,1.02303125 0,2.28046875 L0,15.3536562 C0,15.59575 0.124903846,15.8175625 0.323625,15.9283437 C0.522346154,16.0391562 0.761567308,16.0203437 0.943384615,15.8795937 L5.87616346,12.0625312 L10.8089712,15.8795625 C10.912125,15.959375 11.033625,15.9999375 11.1557885,15.9999375 C11.2490481,15.9999375 11.3426827,15.9762812 11.4287308,15.9282812 C11.6274519,15.8175 11.7523269,15.5956875 11.7523269,15.3535937 L11.7523269,2.28046875 C11.7523269,1.02303125 10.8079904,0 9.64727885,0 Z" fill-rule="nonzero"></path>
                </g>
              </g>
            </g>
          </g>
        </g>
      </g>
    </g>
  </g>
</svg>
