<svg width="32px" height="27px" viewBox="0 0 32 27" version="1.1" xmlns="http://www.w3.org/2000/svg" xmlns:xlink="http://www.w3.org/1999/xlink">
  <!-- Generator: Sketch 48.2 (47327) - http://www.bohemiancoding.com/sketch -->
  <desc>Created with Sketch.</desc>
  <defs></defs>
  <g id="Design" stroke="none" stroke-width="1" fill="none" fill-rule="evenodd">
    <g id="02-Congdong---03-Tao-cong-dong" transform="translate(-794.000000, -674.000000)" fill="#666666" fill-rule="nonzero">
      <g id="Group" transform="translate(776.000000, 674.000000)">
        <g id="119-photo-camera" transform="translate(18.000000, 0.000000)">
          <path d="M28.03325,4.0601875 L23.3769375,4.0601875 L21.086625,0.6246875 C20.846875,0.2650625 20.4433125,0.049 20.011125,0.049 L11.988875,0.049 C11.5566875,0.049 11.1530625,0.265 10.913375,0.6246875 L8.6230625,4.0601875 L3.9666875,4.0601875 C1.7795,4.0601875 0,5.839625 0,8.026875 L0,22.73425 C0,24.9215 1.7795,26.7009375 3.9666875,26.7009375 L28.03325,26.7009375 C30.2205,26.7009375 32,24.9215 32,22.73425 L32,8.026875 C32,5.8396875 30.2205,4.0601875 28.03325,4.0601875 Z M29.41475,22.73425 C29.41475,23.496 28.795,24.115625 28.0333125,24.115625 L3.9666875,24.115625 C3.205,24.115625 2.5853125,23.4959375 2.5853125,22.73425 L2.5853125,8.026875 C2.5853125,7.2651875 3.2050625,6.6455 3.9666875,6.6455 L9.3148125,6.6455 C9.747,6.6455 10.150625,6.4295 10.390375,6.069875 L12.6806875,2.634375 L19.31925,2.634375 L21.6095625,6.069875 C21.8493125,6.4295 22.252875,6.6455 22.685125,6.6455 L28.03325,6.6455 C28.795,6.6455 29.4146875,7.2651875 29.4146875,8.026875 L29.4146875,22.73425 L29.41475,22.73425 Z" id="Shape"></path>
          <path d="M16,8.0713125 C12.33825,8.0713125 9.35925,11.050375 9.35925,14.7120625 C9.35925,18.3738125 12.3383125,21.3528125 16,21.3528125 C19.6616875,21.3528125 22.64075,18.37375 22.64075,14.7120625 C22.64075,11.050375 19.66175,8.0713125 16,8.0713125 Z M16,18.7675625 C13.7638125,18.7675625 11.9445,16.94825 11.9445,14.7120625 C11.9445,12.475875 13.7638125,10.6565625 16,10.6565625 C18.2361875,10.6565625 20.0555,12.475875 20.0555,14.7120625 C20.0555,16.9483125 18.2361875,18.7675625 16,18.7675625 Z" id="Shape"></path>
        </g>
      </g>
    </g>
  </g>
</svg>
