<svg width="24px" height="24px" viewBox="0 0 24 24" version="1.1" xmlns="http://www.w3.org/2000/svg" xmlns:xlink="http://www.w3.org/1999/xlink">
  <!-- Generator: Sketch 48.2 (47327) - http://www.bohemiancoding.com/sketch -->
  <desc>Created with Sketch.</desc>
  <defs></defs>
  <g id="Design" stroke="none" stroke-width="1" fill="none" fill-rule="evenodd">
    <g id="03-Baiviet---02-Tao-bai-viet" transform="translate(-538.000000, -414.000000)" fill="#666666" fill-rule="nonzero">
      <g id="108-chat-1" transform="translate(538.000000, 414.000000)">
        <path d="M20.5792969,0 L3.42070312,0 C1.53454688,0 0,1.53155556 0,3.41403509 L0,22.9855906 C0,23.3769825 0.236203125,23.7297778 0.598546875,23.8795322 C0.718453125,23.9291228 0.844453125,23.9532632 0.969328125,23.9532632 C1.22160937,23.9532632 1.46957813,23.854924 1.65501563,23.669848 L6.27351563,19.0603977 L20.57925,19.0603977 C22.4654531,19.0603977 23.9999531,17.5287953 23.9999531,15.6463158 L23.9999531,3.41403509 C24,1.53155556 22.4655,0 20.5792969,0 Z M22.0610156,15.6462222 C22.0610156,16.4617076 21.3962813,17.1251462 20.57925,17.1251462 L5.8719375,17.1251462 C5.61478125,17.1251462 5.36821875,17.2270877 5.18639062,17.4085614 L1.9389375,20.6496842 L1.9389375,3.41403509 C1.9389375,2.59859649 2.60367187,1.93515789 3.42070312,1.93515789 L20.5792969,1.93515789 C21.3963281,1.93515789 22.0610156,2.59859649 22.0610156,3.41403509 L22.0610156,15.6462222 Z" id="Shape"></path>
      </g>
    </g>
  </g>
</svg>
