
<svg width="20px" height="20px" viewBox="0 0 20 20" version="1.1" xmlns="http://www.w3.org/2000/svg" xmlns:xlink="http://www.w3.org/1999/xlink">
  <!-- Generator: Sketch 48.2 (47327) - http://www.bohemiancoding.com/sketch -->
  <desc>Created with Sketch.</desc>
  <defs></defs>
  <g id="Symbols" stroke="none" stroke-width="1" fill="none" fill-rule="evenodd">
    <g id="Header/Home" transform="translate(-897.000000, -136.000000)" fill="#222222" fill-rule="nonzero">
      <g id="Header">
        <g id="Menu-bar" transform="translate(0.000000, 121.000000)">
          <g id="Group-2" transform="translate(897.000000, 15.000000)">
            <path d="M17.0710547,2.92894531 C15.1823047,1.04019531 12.6710938,0 10,0 C7.32890625,0 4.81769531,1.04023438 2.92894531,2.92894531 C1.04019531,4.81765625 0,7.32890625 0,10 C0,12.6710938 1.04019531,15.1823047 2.92894531,17.0710547 C4.81765625,18.9598047 7.32890625,20 10,20 C12.6710938,20 15.1823047,18.9598047 17.0710547,17.0710547 C18.9598047,15.1823047 20,12.6710938 20,10 C20,7.32890625 18.9598047,4.81765625 17.0710547,2.92894531 Z M10,18.3842188 C5.37695312,18.3842188 1.61578125,14.6230469 1.61578125,10 C1.61578125,5.37695312 5.37695312,1.61578125 10,1.61578125 C14.6230469,1.61578125 18.3842188,5.37695312 18.3842188,10 C18.3842188,14.6230469 14.6230469,18.3842188 10,18.3842188 Z" id="Shape"></path>
            <path d="M19.1921094,9 L0.807890625,9 C0.36171875,9 0,9.36171875 0,9.80789063 C0,10.2541016 0.36171875,10.6157813 0.807890625,10.6157813 L19.1921094,10.6157813 C19.6383203,10.6157813 20,10.2541016 20,9.80789063 C20,9.36171875 19.6383203,9 19.1921094,9 Z" id="Shape"></path>
            <path d="M10.0812012,0.263046875 C9.9281543,0.09546875 9.71163086,0 9.4847168,0 C9.25776367,0 9.0412793,0.09546875 8.88819336,0.263007812 C6.45604492,2.92570313 5.07526367,6.37769531 5.00014648,9.98316406 C4.99995117,9.99441406 4.99995117,10.005625 5.00014648,10.0168359 C5.07526367,13.6223047 6.45604492,17.0743359 8.88819336,19.7369922 C9.0412793,19.9045703 9.25772461,20 9.4847168,20 C9.71163086,20 9.9281543,19.9045703 10.0812012,19.7370312 C12.5133496,17.0744141 13.8941699,13.6223828 13.9692871,10.016875 C13.9695215,10.005625 13.9695215,9.99441406 13.9692871,9.98320312 C13.8941699,6.37769531 12.5133496,2.92570313 10.0812012,0.263046875 Z M9.4847168,17.9469141 C7.6919043,15.6880469 6.68006836,12.9000391 6.6159668,10 C6.68014648,7.09996094 7.6919043,4.31195312 9.4847168,2.05308594 C11.2775684,4.31199219 12.2893652,7.1 12.3535059,10 C12.2893262,12.9000391 11.2775684,15.6880859 9.4847168,17.9469141 Z" id="Shape"></path>
          </g>
        </g>
      </g>
    </g>
  </g>
</svg>
