
<svg width="16px" height="16px" viewBox="0 0 16 16" version="1.1" xmlns="http://www.w3.org/2000/svg" xmlns:xlink="http://www.w3.org/1999/xlink">
  <!-- Generator: Sketch 48.1 (47250) - http://www.bohemiancoding.com/sketch -->
  <desc>Created with Sketch.</desc>
  <defs></defs>
  <g id="Design" stroke="none" stroke-width="1" fill="none" fill-rule="evenodd">
    <g id="01-Home-New" transform="translate(-400.000000, -1835.000000)">
      <g id="Group-31" transform="translate(0.000000, 1160.000000)">
        <g id="Moi-nhat" transform="translate(370.000000, 70.000000)">
          <g id="Group-24" transform="translate(0.000000, 440.000000)">
            <g id="Action/Active-Copy" transform="translate(10.000000, 165.000000)">
              <g id="16x16/dislike-active" transform="translate(20.000000, 0.000000)">
                <g>
                  <rect id="16x16" x="0" y="0" width="16" height="16" rx="1"></rect>
                  <path d="M15.0955102,2.38312236 L15.9673469,8.05738397 C15.9902041,8.18902954 16,8.32742616 16,8.46582278 C16,9.74852321 14.9910204,10.7949367 13.7469388,10.7949367 L10.4522449,10.7949367 L10.4522449,13.1308017 C10.4522449,14.2481013 10.1257143,15.0616034 9.48897959,15.5476793 C9.02204082,15.9021097 8.47673469,16 8.01959184,16 C7.49387755,16 7.08571429,15.87173 7.05632653,15.8616034 C6.8244898,15.7839662 6.6644898,15.5611814 6.6644898,15.3080169 L6.6644898,12.4894515 C6.6644898,10.5038757 4.58551025,9.77416992 4.40675354,9.73544312 L4.40675354,0.417419434 C4.76470016,0.163893679 5.18421769,0.0371308017 5.66530612,0.0371308017 L12.3395918,0.0371308017 C13.8873469,0.0371308017 14.9159184,0.914767932 15.0955102,2.38312236 Z M3.34921265,0.706970215 L3.34921265,9.65498352 C3.24103007,9.9131239 3.03564626,10.0421941 2.73306122,10.0421941 L1.7044898,10.0421941 C0.764081633,10.0421941 -4.10728603e-16,9.25232068 -2.91674332e-16,8.28016878 L4.50761331e-16,2.21772152 C5.6940222e-16,1.24894515 0.764081633,0.45907173 1.7044898,0.45907173 L2.73306122,0.45907173 C3.02258503,0.45907173 3.22796884,0.541704558 3.34921265,0.706970215 Z" id="Combined-Shape" fill="#F0506E" fill-rule="nonzero"></path>
                </g>
              </g>
            </g>
          </g>
        </g>
      </g>
    </g>
  </g>
</svg>
