
<svg width="17px" height="16px" viewBox="0 0 17 16" version="1.1" xmlns="http://www.w3.org/2000/svg" xmlns:xlink="http://www.w3.org/1999/xlink">
  <!-- Generator: Sketch 48.1 (47250) - http://www.bohemiancoding.com/sketch -->
  <desc>Created with Sketch.</desc>
  <defs></defs>
  <g id="Design" stroke="none" stroke-width="1" fill="none" fill-rule="evenodd">
    <g id="01-Home-New" transform="translate(-590.000000, -1835.000000)" fill="#3A5A99">
      <g id="Group-31" transform="translate(0.000000, 1160.000000)">
        <g id="Moi-nhat" transform="translate(370.000000, 70.000000)">
          <g id="Group-24" transform="translate(0.000000, 440.000000)">
            <g id="Action/Active-Copy" transform="translate(10.000000, 165.000000)">
              <g id="16x16/facebook-active" transform="translate(210.000000, 0.000000)">
                <g id="_Path_">
                  <path d="M15.4545455,0.363636364 L1.54545455,0.363636364 C0.905306313,0.363636364 0.386363636,0.852053 0.386363636,1.45454545 L0.386363636,14.5454545 C0.386363636,15.147947 0.905306313,15.6363636 1.54545455,15.6363636 L8.11363636,15.6363636 L8.11363636,9.81818182 L6.56818182,9.81818182 L6.56818182,7.63636364 L8.11363636,7.63636364 L8.11363636,6.18181818 C8.11363636,4.57517164 9.4974835,3.27272727 11.2045455,3.27272727 L13.5227273,3.27272727 L13.5227273,5.45454545 L11.2045455,5.45454545 C10.77778,5.45454545 10.4318182,5.78015655 10.4318182,6.18181818 L10.4318182,7.63636364 L13.5227273,7.63636364 L13.1363636,9.81818182 L10.4318182,9.81818182 L10.4318182,15.6363636 L15.4545455,15.6363636 C16.0946937,15.6363636 16.6136364,15.147947 16.6136364,14.5454545 L16.6136364,1.45454545 C16.6136364,0.852053 16.0946937,0.363636364 15.4545455,0.363636364 Z"></path>
                </g>
              </g>
            </g>
          </g>
        </g>
      </g>
    </g>
  </g>
</svg>
