
<svg width="18px" height="18px" viewBox="0 0 18 18" version="1.1" xmlns="http://www.w3.org/2000/svg" xmlns:xlink="http://www.w3.org/1999/xlink">
  <!-- Generator: Sketch 48.1 (47250) - http://www.bohemiancoding.com/sketch -->
  <desc>Created with Sketch.</desc>
  <defs></defs>
  <g id="Symbols" stroke="none" stroke-width="1" fill="none" fill-rule="evenodd" stroke-linecap="round" stroke-linejoin="round">
    <g id="16x16/facebook" transform="translate(1.000000, 1.000000)" stroke="#666666">
      <g id="_Path_">
        <path d="M14.5454545,0.363636364 L1.45454545,0.363636364 C0.852053,0.363636364 0.363636364,0.852053 0.363636364,1.45454545 L0.363636364,14.5454545 C0.363636364,15.147947 0.852053,15.6363636 1.45454545,15.6363636 L7.63636364,15.6363636 L7.63636364,9.81818182 L6.18181818,9.81818182 L6.18181818,7.63636364 L7.63636364,7.63636364 L7.63636364,6.18181818 C7.63636364,4.57517164 8.938808,3.27272727 10.5454545,3.27272727 L12.7272727,3.27272727 L12.7272727,5.45454545 L10.5454545,5.45454545 C10.1437929,5.45454545 9.81818182,5.78015655 9.81818182,6.18181818 L9.81818182,7.63636364 L12.7272727,7.63636364 L12.3636364,9.81818182 L9.81818182,9.81818182 L9.81818182,15.6363636 L14.5454545,15.6363636 C15.147947,15.6363636 15.6363636,15.147947 15.6363636,14.5454545 L15.6363636,1.45454545 C15.6363636,0.852053 15.147947,0.363636364 14.5454545,0.363636364 Z"></path>
      </g>
    </g>
  </g>
</svg>
