
<svg width="16px" height="13px" viewBox="0 0 16 13" version="1.1" xmlns="http://www.w3.org/2000/svg" xmlns:xlink="http://www.w3.org/1999/xlink">
  <!-- Generator: Sketch 48.1 (47250) - http://www.bohemiancoding.com/sketch -->
  <desc>Created with Sketch.</desc>
  <defs></defs>
  <g id="Design" stroke="none" stroke-width="1" fill="none" fill-rule="evenodd">
    <g id="03-Baiviet---01-View" transform="translate(-30.000000, -724.000000)" fill="#666666" fill-rule="nonzero">
      <g id="User" transform="translate(20.000000, 240.000000)">
        <g id="graduation-cap-(1)" transform="translate(10.000000, 484.000000)">
          <path d="M15.6859525,3.93697098 L8.2283905,0.0657308707 C8.07594723,-0.0133825858 7.89458575,-0.0133825858 7.74210026,0.0657308707 L0.284580475,3.93697098 C0.109762533,4.02773615 4.22163588e-05,4.20829551 0,4.40527704 C0,4.40527704 0,4.40527704 0,4.40531926 L0,6.42596306 C0,6.71734037 0.236242744,6.95366755 0.527704485,6.95366755 C0.819166227,6.95366755 1.05540897,6.71734037 1.05540897,6.42596306 L1.05540897,5.2737942 L2.18651187,5.86098153 L2.18651187,10.0632823 C2.18651187,10.1733404 2.22091821,10.2806544 2.28500264,10.3702375 C2.33988391,10.4469446 3.67814248,12.2490343 7.98526649,12.2490343 C12.2923905,12.2490343 13.6305224,10.4469446 13.6854459,10.3702375 C13.7494459,10.2806966 13.78381,10.1733404 13.78381,10.0632823 L13.78381,5.86098153 L15.6859525,4.87362533 C15.8607704,4.78286016 15.9704908,4.60225858 15.9704908,4.40527704 C15.9704908,4.20829551 15.8607282,4.02773615 15.6859525,3.93697098 Z M12.7284011,9.85954617 C12.3779631,10.1963905 11.0786702,11.1937098 7.98526649,11.1937098 C4.8918628,11.1937098 3.59248549,10.1963905 3.24200528,9.85954617 L3.24200528,6.40890765 L7.74214248,8.74494987 C7.81838522,8.78454881 7.90180475,8.80430607 7.98526649,8.80430607 C8.06872823,8.80430607 8.15223219,8.7845066 8.2283905,8.74494987 L12.7284011,6.40890765 L12.7284011,9.85954617 Z M7.98526649,7.68202639 L1.67311873,4.40536148 L7.98526649,1.12865435 L14.2974142,4.40536148 L7.98526649,7.68202639 Z" id="Shape"></path>
          <path d="M0.527746702,7.41893404 C0.23628496,7.41893404 4.22163588e-05,7.655219 4.22163588e-05,7.94663852 L4.22163588e-05,8.58482322 C4.22163588e-05,8.87624274 0.23628496,9.1125277 0.527746702,9.1125277 C0.819208443,9.1125277 1.05545119,8.87624274 1.05545119,8.58482322 L1.05545119,7.94663852 C1.05545119,7.655219 0.819208443,7.41893404 0.527746702,7.41893404 Z" id="Shape"></path>
        </g>
      </g>
    </g>
  </g>
</svg>
