
<svg width="16px" height="16px" viewBox="0 0 16 16" version="1.1" xmlns="http://www.w3.org/2000/svg" xmlns:xlink="http://www.w3.org/1999/xlink">
  <!-- Generator: Sketch 48.1 (47250) - http://www.bohemiancoding.com/sketch -->
  <desc>Created with Sketch.</desc>
  <defs></defs>
  <g id="Design" stroke="none" stroke-width="1" fill="none" fill-rule="evenodd">
    <g id="03-Baiviet---01-View" transform="translate(-30.000000, -1222.000000)" fill="#666666" fill-rule="nonzero">
      <g id="User" transform="translate(20.000000, 240.000000)">
        <g id="051-phone-call-6" transform="translate(10.000000, 982.000000)">
          <path d="M14.1596563,9.51940625 C14.1577188,9.51915625 14.1557813,9.518875 14.1538438,9.518625 C13.4945938,9.4316875 12.8444688,9.26971875 12.2229375,9.03778125 C11.4500625,8.74728125 10.5710938,8.934625 9.98384375,9.5153125 C9.98296875,9.51615625 9.982125,9.51703125 9.98125,9.517875 L9.40015625,10.0989688 C7.98025,9.20684375 6.77821875,8.0048125 5.88609375,6.58490625 L6.4671875,6.0038125 C6.4680625,6.00296875 6.46890625,6.002125 6.46975,6.00125 C7.05040625,5.4140625 7.237875,4.53515625 6.9478125,3.763625 C6.715375,3.14065625 6.553375,2.49053125 6.4664375,1.83125 C6.4661875,1.82928125 6.46590625,1.82728125 6.465625,1.82534375 C6.31809375,0.7811875 5.41678125,0 4.36428125,0 C4.35853125,0 4.35259375,3.125e-05 4.3468125,6.25e-05 L2.135,6.25e-05 C2.07225,0.000125 2.00871875,0.00303125 1.946,0.0086875 C1.38140625,0.05971875 0.87046875,0.3275625 0.5073125,0.76284375 C0.14415625,1.1981875 -0.02775,1.74884375 0.02328125,2.3134375 C0.02359375,2.3168125 0.02390625,2.32015625 0.02428125,2.32353125 C0.27590625,4.69315625 1.0935,7.00278125 2.38875,9.0029375 C3.56421875,10.852 5.16259375,12.450375 7.01165625,13.6258438 C9.0025625,14.9163438 11.3015,15.7339375 13.6600625,15.9901875 C13.663875,15.990625 13.6677188,15.991 13.6715938,15.9913438 C13.7349688,15.9970938 13.7994375,16 13.863625,16 C13.8661875,16 13.86875,16 13.8713438,15.9999375 C14.4382188,15.9975938 14.9703125,15.7746875 15.3695313,15.3721875 C15.76875,14.9697187 15.9873438,14.4358437 15.9850625,13.8715625 L15.9850625,11.6648125 C16.007375,10.591125 15.2240625,9.66959375 14.1596563,9.51940625 Z M14.692625,11.6415312 C14.6924687,11.6469063 14.6924375,11.6522187 14.6924375,11.6575938 L14.6924375,13.8743125 C14.6933438,14.0959375 14.6079062,14.304625 14.4518125,14.4619688 C14.2957187,14.6193125 14.0877188,14.7064688 13.866375,14.707375 C13.842625,14.7075 13.817375,14.7064688 13.7931875,14.7044063 C11.6359375,14.4689688 9.53328125,13.7204688 7.71246875,12.5396875 C7.7108125,12.5385938 7.709125,12.5375312 7.7074375,12.5364688 C6.01565625,11.4614688 4.55321875,9.99903125 3.47821875,8.30725 C3.47721875,8.30565625 3.47621875,8.30409375 3.4751875,8.30246875 C2.28990625,6.472875 1.54134375,4.36034375 1.31028125,2.1926875 C1.2716875,1.7388125 1.60815625,1.33709375 2.06221875,1.29609375 C2.0868125,1.293875 2.1116875,1.29271875 2.135625,1.29271875 L4.3496875,1.29271875 C4.3545,1.29271875 4.35940625,1.29265625 4.36421875,1.29265625 C4.77484375,1.29265625 5.12665625,1.596875 5.185375,2.00375 C5.28515625,2.75834375 5.4706875,3.5024375 5.73734375,4.21696875 C5.85078125,4.51871875 5.777875,4.86178125 5.55165625,5.0913125 L4.6159375,6.0270625 C4.41021875,6.23278125 4.36728125,6.550625 4.511125,6.80353125 C5.61871875,8.75140625 7.23371875,10.366375 9.1815625,11.474 C9.43446875,11.61775 9.75234375,11.5749375 9.9580625,11.3691875 L10.89375,10.4334687 C11.1233125,10.20725 11.4664063,10.1343438 11.7695625,10.2483438 C12.482625,10.5144375 13.2268125,10.6999375 13.9814375,10.7997188 C14.3975,10.859625 14.7030625,11.221125 14.692625,11.6415312 Z" id="Shape"></path>
        </g>
      </g>
    </g>
  </g>
</svg>
