
<svg width="16px" height="16px" viewBox="0 0 16 16" version="1.1" xmlns="http://www.w3.org/2000/svg" xmlns:xlink="http://www.w3.org/1999/xlink">
  <!-- Generator: Sketch 48.1 (47250) - http://www.bohemiancoding.com/sketch -->
  <desc>Created with Sketch.</desc>
  <defs></defs>
  <g id="Design" stroke="none" stroke-width="1" fill="none" fill-rule="evenodd">
    <g id="03-Baiviet---01-View" transform="translate(-69.000000, -537.000000)" fill="#666666" fill-rule="nonzero">
      <g id="User" transform="translate(20.000000, 240.000000)">
        <g id="Group-4" transform="translate(49.000000, 295.000000)">
          <g id="005-close-1" transform="translate(0.000000, 2.000000)">
            <path d="M13.7195625,0 L2.28046875,0 C1.02303125,0 0,1.02303125 0,2.28046875 L0,13.7195312 C0,14.977 1.02303125,16 2.28046875,16 L13.7195312,16 C14.977,16 16,14.977 16,13.7195625 L16,2.28046875 C16,1.02303125 14.977,0 13.7195625,0 Z M14.707375,13.7195312 C14.707375,14.2642188 14.2642187,14.707375 13.7195625,14.707375 L2.28046875,14.707375 C1.73578125,14.707375 1.292625,14.2642188 1.292625,13.7195625 L1.292625,2.28046875 C1.292625,1.73578125 1.73578125,1.292625 2.28046875,1.292625 L13.7195312,1.292625 C14.2642187,1.292625 14.707375,1.73578125 14.707375,2.28046875 L14.707375,13.7195312 Z" id="Shape"></path>
            <path d="M10.8166756,9.93140237 L6.06859074,5.18332047 C5.82416329,4.93889318 5.427801,4.93889318 5.18334329,5.18332047 C4.93888557,5.42777803 4.93888557,5.8241098 5.18334329,6.06856736 L9.93142818,10.8166493 C10.0536419,10.9388932 10.2138696,11 10.374067,11 C10.5342645,11 10.6944922,10.9388932 10.8167059,10.8166493 C11.0611031,10.572222 11.0611031,10.1758599 10.8166756,9.93140237 Z" id="Shape" transform="translate(8.000000, 8.000000) rotate(45.000000) translate(-8.000000, -8.000000) "></path>
            <path d="M10.8166802,5.18332047 C10.5722236,4.93889318 10.1758933,4.93889318 9.93143668,5.18332047 L5.18334248,9.93140237 C4.93888584,10.1758599 4.93888584,10.5721917 5.18334248,10.8166493 C5.30555566,10.9388932 5.46578265,11 5.62597938,11 C5.78617611,11 5.94637284,10.9388932 6.06858602,10.8166493 L10.8166802,6.06856736 C11.0611066,5.82414007 11.0611066,5.4278083 10.8166802,5.18332047 Z" id="Shape" transform="translate(8.000000, 8.000000) rotate(45.000000) translate(-8.000000, -8.000000) "></path>
          </g>
        </g>
      </g>
    </g>
  </g>
</svg>
