<svg width="16px" height="16px" viewBox="0 0 16 16" version="1.1" xmlns="http://www.w3.org/2000/svg" xmlns:xlink="http://www.w3.org/1999/xlink">
  <desc>Created with Sketch.</desc>
  <defs></defs>
  <g id="Symbols" stroke="none" stroke-width="1" fill="none" fill-rule="evenodd">
    <g id="Header/Home" transform="translate(-603.000000, -138.000000)" fill="#000000" fill-rule="nonzero">
      <g id="Header">
        <g id="Menu-bar" transform="translate(0.000000, 121.000000)">
          <g id="001-zoom-out" transform="translate(603.000000, 17.000000)">
            <path d="M12.2620312,2.10384375 C10.905375,0.74715625 9.1015625,0 7.1829375,0 C5.26428125,0 3.46053125,0.74715625 2.10384375,2.10384375 C0.74715625,3.4605 0,5.26428125 0,7.1829375 C0,9.1015625 0.74715625,10.905375 2.10384375,12.2620312 C3.4605,13.6186562 5.2643125,14.3658437 7.1829375,14.3658437 C9.1015625,14.3658437 10.905375,13.6186875 12.2620312,12.2620312 C13.6186562,10.905375 14.3658437,9.1015625 14.3658437,7.1829375 C14.3658437,5.26428125 13.6187187,3.4605 12.2620312,2.10384375 Z M7.1829375,13.07325 C3.93503125,13.07325 1.292625,10.430875 1.292625,7.1829375 C1.292625,3.935 3.935,1.292625 7.1829375,1.292625 C10.430875,1.292625 13.0732188,3.935 13.07325,7.1829375 C13.07325,10.430875 10.4308438,13.07325 7.1829375,13.07325 Z" id="Shape"></path>
            <path d="M15.8107188,14.8966563 L12.2564375,11.3424062 C12.0040313,11.09 11.5948125,11.09 11.3424062,11.3424062 C11.0900312,11.5948125 11.0900312,12.0040313 11.3424062,12.2564375 L14.8966875,15.8107188 C15.022875,15.9369375 15.1883125,16.0000313 15.3537188,16.0000313 C15.519125,16.0000313 15.6845625,15.9369375 15.81075,15.8107188 C16.0630938,15.5582813 16.0630938,15.1490625 15.8107188,14.8966563 Z" id="Shape"></path>
          </g>
        </g>
      </g>
    </g>
  </g>
</svg>
