
<svg width="16px" height="16px" viewBox="0 0 16 16" version="1.1" xmlns="http://www.w3.org/2000/svg" xmlns:xlink="http://www.w3.org/1999/xlink">
  <!-- Generator: Sketch 48.1 (47250) - http://www.bohemiancoding.com/sketch -->
  <desc>Created with Sketch.</desc>
  <defs></defs>
  <g id="Design" stroke="none" stroke-width="1" fill="none" fill-rule="evenodd">
    <g id="03-Baiviet---01-View" transform="translate(-939.000000, -2627.000000)" fill="#666666" fill-rule="nonzero">
      <g id="028-tag" transform="translate(939.000000, 2627.000000)">
        <path d="M15.3667187,6.7808125 L8.77603125,0.19009375 C8.65478125,0.068875 8.49040625,0.00078125 8.3189375,0.00078125 L0.64640625,0.00078125 C0.28940625,0.00078125 0,0.2901875 0,0.6471875 L0,8.31971875 C0,8.49128125 0.0681875,8.6558125 0.189625,8.7770625 L6.78028125,15.3600938 C6.78071875,15.3605 6.78109375,15.3609063 6.7815,15.3613125 C7.193375,15.7727188 7.74065625,15.99925 8.32275,15.99925 C8.32315625,15.99925 8.32365625,15.99925 8.324,15.99925 C8.90653125,15.9989062 9.454125,15.77175 9.86553125,15.3598437 L15.3667188,9.858625 C15.3671875,9.85815625 15.367625,9.85771875 15.3680625,9.85728125 C16.210875,9.00946875 16.210875,7.62996875 15.3667187,6.7808125 Z M14.4519062,8.94509375 L8.95109375,14.4459375 C8.78346875,14.61375 8.5605,14.70625 8.32328125,14.7064062 C8.32309375,14.7064062 8.3229375,14.7064062 8.32275,14.7064062 C8.08571875,14.7064062 7.8628125,14.614125 7.695125,14.4465937 C7.695,14.4465 7.69490625,14.4464062 7.6948125,14.4462812 C7.69453125,14.4459687 7.69421875,14.4456875 7.69390625,14.445375 L1.2928125,8.05175 L1.2928125,1.29359375 L8.05115625,1.29359375 L14.4512187,7.693625 C14.7941562,8.038625 14.7944375,8.59984375 14.4519062,8.94509375 Z" id="Shape"></path>
        <path d="M4.93971875,4.0264375 C4.81934375,3.9060625 4.65271875,3.837125 4.482625,3.837125 C4.31253125,3.837125 4.14590625,3.9060625 4.02553125,4.0264375 C3.90515625,4.1468125 3.83621875,4.31315625 3.83621875,4.48353125 C3.83621875,4.65359375 3.90515625,4.82025 4.02553125,4.940625 C4.14590625,5.061 4.31253125,5.1299375 4.482625,5.1299375 C4.65271875,5.1299375 4.81934375,5.061 4.93971875,4.940625 C5.06009375,4.82025 5.12903125,4.653625 5.12903125,4.48353125 C5.1290625,4.31315625 5.06009375,4.1468125 4.93971875,4.0264375 Z" id="Shape"></path>
      </g>
    </g>
  </g>
</svg>
