
<svg width="15px" height="16px" viewBox="0 0 15 16" version="1.1" xmlns="http://www.w3.org/2000/svg" xmlns:xlink="http://www.w3.org/1999/xlink">
  <!-- Generator: Sketch 48.1 (47250) - http://www.bohemiancoding.com/sketch -->
  <desc>Created with Sketch.</desc>
  <defs></defs>
  <g id="Design" stroke="none" stroke-width="1" fill="none" fill-rule="evenodd">
    <g id="03-Baiviet---01-View" transform="translate(-564.000000, -2888.000000)" fill="#666666" fill-rule="nonzero">
      <g id="014-upload-2" transform="translate(564.000000, 2888.000000)">
        <path d="M13.8995625,11.0305312 C13.5425938,11.0305312 13.25325,11.319875 13.25325,11.6768437 L13.25325,13.8829375 C13.25325,14.3375313 12.8834063,14.7073437 12.4288437,14.7073437 L2.1336875,14.7073437 C1.67909375,14.7073437 1.30928125,14.3375 1.30928125,13.8829375 L1.30928125,11.6768437 C1.30928125,11.319875 1.01990625,11.0305312 0.66296875,11.0305312 C0.30603125,11.0305312 0.01665625,11.319875 0.01665625,11.6768437 L0.01665625,13.8829375 C0.01665625,15.0502813 0.966375,16 2.13371875,16 L12.428875,16 C13.59625,16 14.5459375,15.0502812 14.5459375,13.8829375 L14.5459375,11.6768437 C14.545875,11.319875 14.2565313,11.0305312 13.8995625,11.0305312 Z" id="Shape"></path>
        <path d="M10.6797813,3.1308125 L7.7383125,0.18934375 C7.48590625,-0.06303125 7.0766875,-0.0630625 6.82428125,0.18934375 L3.8828125,3.1308125 C3.63040625,3.3831875 3.63040625,3.79240625 3.8828125,4.0448125 C4.1351875,4.29721875 4.5444375,4.29721875 4.7968125,4.0448125 L7.28125,1.560375 L9.76571875,4.0448125 C9.89190625,4.171 10.0573438,4.234125 10.22275,4.234125 C10.3881563,4.234125 10.5535625,4.171 10.6798125,4.04484375 C10.9321563,3.7924375 10.9321563,3.38321875 10.6797813,3.1308125 Z" id="Shape"></path>
        <path d="M7.28125,0 C6.92428125,0 6.6349375,0.289375 6.6349375,0.6463125 L6.6349375,10.9414688 C6.6349375,11.2984375 6.9243125,11.5877813 7.28125,11.5877813 C7.63821875,11.5877813 7.9275625,11.2984375 7.9275625,10.9414688 L7.9275625,0.6463125 C7.9275625,0.289375 7.63821875,0 7.28125,0 Z" id="Shape"></path>
      </g>
    </g>
  </g>
</svg>
