
<svg width="16px" height="12px" viewBox="0 0 16 12" version="1.1" xmlns="http://www.w3.org/2000/svg" xmlns:xlink="http://www.w3.org/1999/xlink">
  <!-- Generator: Sketch 48.1 (47250) - http://www.bohemiancoding.com/sketch -->
  <desc>Created with Sketch.</desc>
  <defs></defs>
  <g id="Design" stroke="none" stroke-width="1" fill="none" fill-rule="evenodd">
    <g id="03-Baiviet---01-View" transform="translate(-30.000000, -785.000000)" fill="#666666" fill-rule="nonzero">
      <g id="User" transform="translate(20.000000, 240.000000)">
        <g id="042-wifi" transform="translate(10.000000, 545.000000)">
          <path d="M8,3.757625 C6.83246875,3.757625 5.882625,4.70746875 5.882625,5.875 C5.882625,7.04253125 6.83246875,7.992375 8,7.992375 C9.16753125,7.992375 10.117375,7.04253125 10.117375,5.875 C10.117375,4.70746875 9.16753125,3.757625 8,3.757625 Z M8,6.69971875 C7.54525,6.69971875 7.17528125,6.32975 7.17528125,5.875 C7.17528125,5.42025 7.54525,5.05028125 8,5.05028125 C8.45475,5.05028125 8.82471875,5.42025 8.82471875,5.875 C8.82471875,6.32975 8.45475,6.69971875 8,6.69971875 Z" id="Shape"></path>
          <path d="M11.575375,2.299125 C11.3227813,2.04684375 10.9135625,2.0470625 10.6613438,2.299625 C10.4090938,2.5521875 10.4093437,2.96140625 10.661875,3.21365625 C12.131375,4.6815625 12.1327188,7.07128125 10.6650938,8.5405 L10.661625,8.54396875 C10.40925,8.796375 10.40925,9.20559375 10.661625,9.458 C10.7878125,9.58421875 10.95325,9.6473125 11.1186563,9.6473125 C11.2840625,9.6473125 11.4495,9.58421875 11.5756875,9.458 L11.5794375,9.45428125 C13.5509375,7.4805 13.5491563,4.27071875 11.575375,2.299125 Z" id="Shape"></path>
          <path d="M5.338125,8.53640625 C4.62628125,7.82534375 4.2339375,6.879625 4.233375,5.87346875 C4.2328125,4.8673125 4.62409375,3.92115625 5.33515625,3.2093125 C5.33596875,3.20846875 5.3375,3.2069375 5.33834375,3.20609375 C5.59075,2.9536875 5.59075,2.54446875 5.33834375,2.2920625 C5.08596875,2.03965625 4.67671875,2.03965625 4.42434375,2.2920625 L4.420625,2.2958125 C2.44903125,4.26959375 2.4508125,7.47934375 4.42459375,9.45096875 C4.55078125,9.57703125 4.71603125,9.64 4.88134375,9.64 C5.04684375,9.64 5.21240625,9.5768125 5.338625,9.45046875 C5.5909375,9.197875 5.5906875,8.78865625 5.338125,8.53640625 Z" id="Shape"></path>
          <path d="M13.6572188,0.217875 C13.404875,-0.03453125 12.995625,-0.034625 12.7432188,0.21775 C12.4907813,0.470125 12.4906875,0.87934375 12.7430625,1.13178125 C15.3576875,3.7471875 15.3576875,8.00275 12.7430625,10.6181875 C12.4906875,10.870625 12.4907813,11.2798437 12.7432188,11.5321875 C12.8694063,11.658375 13.03475,11.7214375 13.2001563,11.7214375 C13.3655938,11.7214375 13.5310313,11.6582812 13.6572188,11.5320625 C15.168,10.0209062 16,8.01184375 16,5.875 C16,3.73815625 15.168,1.72909375 13.6572188,0.217875 Z" id="Shape"></path>
          <path d="M3.25690625,1.1318125 C3.50928125,0.87934375 3.50921875,0.470125 3.25678125,0.21778125 C3.0043125,-0.034625 2.59509375,-0.03453125 2.34275,0.21790625 C0.832,1.72909375 0,3.73815625 0,5.875 C0,8.01184375 0.832,10.0209062 2.34275,11.5320937 C2.4689375,11.658375 2.634375,11.7214687 2.7998125,11.7214687 C2.9651875,11.7214687 3.13059375,11.6583437 3.25678125,11.5322187 C3.50921875,11.279875 3.50928125,10.8706562 3.25690625,10.6182187 C0.6423125,8.00278125 0.6423125,3.74721875 3.25690625,1.1318125 Z" id="Shape"></path>
        </g>
      </g>
    </g>
  </g>
</svg>
