<?xml version="1.0" encoding="UTF-8"?>
<svg width="22px" height="33px" viewBox="0 0 22 33" version="1.1" xmlns="http://www.w3.org/2000/svg" xmlns:xlink="http://www.w3.org/1999/xlink">
    <!-- Generator: Sketch 48.1 (47250) - http://www.bohemiancoding.com/sketch -->
    <title>130-medal</title>
    <desc>Created with Sketch.</desc>
    <defs></defs>
    <g id="04-Trang-ca-nhan---01-CV-" stroke="none" stroke-width="1" fill="none" fill-rule="evenodd" transform="translate(-50.000000, -2913.000000)">
        <g id="130-medal" transform="translate(50.000000, 2913.000000)" fill="#666666" fill-rule="nonzero">
            <path d="M10.6311111,0 C4.76912281,0 0,4.76906043 0,10.6311111 C0,16.4931618 4.76912281,21.2622222 10.6311111,21.2622222 C16.4930994,21.2622222 21.2622222,16.4932242 21.2622222,10.6311111 C21.2622222,4.76906043 16.4930994,0 10.6311111,0 Z M10.6311111,18.6819493 C6.19184405,18.6819493 2.5802729,15.0703782 2.5802729,10.6311111 C2.5802729,6.19184405 6.19184405,2.58021053 10.6311111,2.58021053 C15.0703782,2.58021053 18.6819493,6.19184405 18.6819493,10.6311111 C18.6819493,15.0703782 15.0703782,18.6819493 10.6311111,18.6819493 Z" id="Shape"></path>
            <path d="M18.9134424,31.290577 L17.2988459,19.1205965 C17.2050915,18.4142261 16.5568576,17.9177583 15.8502377,18.0113255 C15.1438673,18.1050799 14.6472747,18.7536257 14.7409667,19.4599337 L16.0036256,28.9771579 L11.6261129,26.3506004 C11.2175359,26.1055165 10.7072201,26.1056413 10.2985808,26.3506004 L5.92150473,28.9769083 L7.18372696,19.4734698 C7.27754372,18.7670994 6.78095113,18.1184912 6.07470551,18.0246744 C5.36839752,17.9307329 4.71972696,18.4274503 4.62591019,19.1336335 L3.01125132,31.2902651 C2.94606614,31.7814308 3.16775814,32.266421 3.58182442,32.5384522 C3.9958907,32.810421 4.52916165,32.8212748 4.95395697,32.56646 L10.9624092,28.9615009 L16.9707367,32.5665848 C17.1753371,32.689345 17.4049511,32.7504132 17.6344404,32.7504132 C17.8814579,32.7504132 18.1281012,32.679614 18.3427445,32.5386393 C18.7568732,32.2666082 18.9785652,31.7816179 18.9134424,31.290577 Z" id="Shape"></path>
        </g>
    </g>
</svg>