<?xml version="1.0" encoding="UTF-8"?>
<svg width="16px" height="15px" viewBox="0 0 16 15" version="1.1" xmlns="http://www.w3.org/2000/svg" xmlns:xlink="http://www.w3.org/1999/xlink">
    <!-- Generator: Sketch 48.1 (47250) - http://www.bohemiancoding.com/sketch -->
    <title>121-briefcase</title>
    <desc>Created with Sketch.</desc>
    <defs></defs>
    <g id="03-Baiviet---01-View" stroke="none" stroke-width="1" fill="none" fill-rule="evenodd" transform="translate(-30.000000, -753.000000)">
        <g id="User" transform="translate(20.000000, 240.000000)" fill="#666666" fill-rule="nonzero">
            <g id="121-briefcase" transform="translate(10.000000, 513.000000)">
                <path d="M13.8829375,2.95809375 L2.1170625,2.95809375 C0.94971875,2.95809375 0,3.90778125 0,5.07515625 L0,12.4288438 C0,13.5962188 0.94971875,14.5459063 2.1170625,14.5459063 L13.8829375,14.5459063 C15.0502813,14.5459063 16,13.5962188 16,12.4288438 L16,5.07515625 C16,3.9078125 15.0503125,2.95809375 13.8829375,2.95809375 Z M14.707375,12.4288125 C14.707375,12.8834063 14.3375313,13.2532188 13.8829687,13.2532188 L2.1170625,13.2532188 C1.66246875,13.2532188 1.29265625,12.883375 1.29265625,12.4288125 L1.29265625,5.07515625 C1.29265625,4.6205625 1.6625,4.25075 2.1170625,4.25075 L13.8829375,4.25075 C14.3375312,4.25075 14.7073437,4.62059375 14.7073437,5.07515625 L14.7073437,12.4288125 L14.707375,12.4288125 Z" id="Shape"></path>
                <path d="M9.47075,0.016625 L6.52928125,0.016625 C5.3619375,0.016625 4.41221875,0.96634375 4.41221875,2.1336875 L4.41221875,13.8995625 C4.41221875,14.2565312 4.70159375,14.545875 5.05853125,14.545875 C5.41546875,14.545875 5.70484375,14.2565312 5.70484375,13.8995625 L5.70484375,2.1336875 C5.70484375,1.67909375 6.0746875,1.30928125 6.52925,1.30928125 L9.47071875,1.30928125 C9.9253125,1.30928125 10.295125,1.679125 10.295125,2.1336875 L10.295125,13.8995625 C10.295125,14.2565312 10.5844687,14.545875 10.9414375,14.545875 C11.2984062,14.545875 11.58775,14.2565312 11.58775,13.8995625 L11.58775,2.1336875 C11.5877813,0.96634375 10.6380937,0.016625 9.47075,0.016625 Z" id="Shape"></path>
            </g>
        </g>
    </g>
</svg>