<?xml version="1.0" encoding="UTF-8"?>
<svg width="19px" height="20px" viewBox="0 0 19 20" version="1.1" xmlns="http://www.w3.org/2000/svg" xmlns:xlink="http://www.w3.org/1999/xlink">
    <!-- Generator: Sketch 48.1 (47250) - http://www.bohemiancoding.com/sketch -->
    <title>Group 5</title>
    <desc>Created with Sketch.</desc>
    <defs></defs>
    <g id="01-Home-New" stroke="none" stroke-width="1" fill="none" fill-rule="evenodd" transform="translate(-1293.000000, -136.000000)">
        <g id="Header" fill="#222222" fill-rule="nonzero">
            <g id="Menu-bar" transform="translate(0.000000, 121.000000)">
                <g id="Group-5" transform="translate(1293.000000, 15.000000)">
                    <path d="M0.0522766442,16.8206751 C0.159871581,17.0836709 0.422867362,17.2629958 0.709787193,17.2629958 L5.92215006,17.2629958 C6.14928086,18.8051899 7.48826821,19.9887342 9.07826821,19.9887342 C10.6682682,19.9887342 12.0072555,18.8051899 12.2343863,17.2629958 L17.4587323,17.2629958 C17.4945973,17.2629958 17.5304623,17.2629958 17.5663273,17.2510549 C17.8293231,17.2151899 18.0445129,17.035865 18.1401669,16.7967511 C18.2358209,16.5217722 18.164091,16.2348523 17.960842,16.0435865 C17.9489011,16.0316456 17.936918,16.0196624 17.9249771,16.0077215 C17.8532471,15.9359916 17.5663273,15.6132068 17.2913484,14.9317722 C16.9924876,14.2025316 16.6218547,12.8994093 16.6218547,10.8790295 C16.6218547,6.88607595 15.1155256,4.78198312 13.8602513,3.71797468 C13.0234159,3.01261603 12.1865382,2.66594937 11.6366226,2.4985654 C11.6126986,2.00839662 11.4931627,1.33894515 11.0388589,0.800970464 C10.7280994,0.430379747 10.1423188,0 9.10223445,0 C8.07409099,0 7.4883104,0.442320675 7.17746652,0.800970464 C6.71122179,1.35088608 6.5797028,2.03232068 6.56776188,2.53443038 C6.00586314,2.70181435 5.1690277,3.04848101 4.34413318,3.72991561 C2.03683361,5.61881857 1.55860576,8.65535865 1.55860576,10.8551055 C1.55860576,12.8157384 1.18801504,14.1188186 0.877171159,14.8719831 C0.542445421,15.6729536 0.21966061,16.0316034 0.21966061,16.0316034 C0.00447073705,16.2348945 -0.0553182925,16.5456962 0.0522766442,16.8206751 Z M9.09025133,18.554135 C8.28928086,18.554135 7.60784626,18.0042194 7.39265639,17.2629958 L10.7878885,17.2629958 C10.5726986,18.0042194 9.89126399,18.554135 9.09025133,18.554135 Z M2.99320491,10.8551477 C2.99320491,4.42337553 7.20134837,3.81367089 7.36873234,3.78974684 C7.55999816,3.76582278 7.73932306,3.67021097 7.85890112,3.51476793 C7.97843698,3.35936709 8.02628508,3.16805907 8.00236103,2.96485232 C7.96649605,2.73772152 7.942572,2.06822785 8.26535681,1.69763713 C8.32514584,1.62590717 8.51641167,1.39877637 9.10219226,1.39877637 C9.68797285,1.39877637 9.87928086,1.62590717 9.95101082,1.69763713 C10.2498716,2.04434599 10.2379307,2.70185654 10.2020657,2.91704641 C10.1662007,3.10831224 10.2140066,3.31156118 10.3335847,3.46696203 C10.4531205,3.62236287 10.6205045,3.72995781 10.8237534,3.75388186 C10.8356944,3.75388186 11.8997028,3.9092827 12.9637112,4.80590717 C14.4580994,6.06118143 15.211264,8.10548523 15.211264,10.8790295 C15.211264,13.3178481 15.6775087,14.8839662 16.1437534,15.8403376 L2.03683361,15.8403376 C2.49109521,14.8481013 2.99320491,13.2461181 2.99320491,10.8551477 Z" id="Shape"></path>
                </g>
            </g>
        </g>
    </g>
</svg>