<?xml version="1.0" encoding="UTF-8"?>
<svg width="16px" height="20px" viewBox="0 0 16 20" version="1.1" xmlns="http://www.w3.org/2000/svg" xmlns:xlink="http://www.w3.org/1999/xlink">
    <!-- Generator: Sketch 48.1 (47250) - http://www.bohemiancoding.com/sketch -->
    <title>Group 3</title>
    <desc>Created with Sketch.</desc>
    <defs></defs>
    <g id="01-Home-New" stroke="none" stroke-width="1" fill="none" fill-rule="evenodd" transform="translate(-803.000000, -136.000000)">
        <g id="Header" fill="#222222" fill-rule="nonzero">
            <g id="Menu-bar" transform="translate(0.000000, 121.000000)">
                <g id="Group-3" transform="translate(803.000000, 15.000000)">
                    <path d="M13.0640234,0 L2.85058594,0 C1.27875,0 0,1.27878906 0,2.85058594 L0,19.1920703 C0,19.4946875 0.169140625,19.7719531 0.438242187,19.9104297 C0.70734375,20.0489453 1.03128906,20.0254297 1.2775,19.8494922 L7.95730469,15.0781641 L14.6371484,19.8494531 C14.7768359,19.9492187 14.9413672,19.9999219 15.1067969,19.9999219 C15.2330859,19.9999219 15.3598828,19.9703516 15.4764063,19.9103516 C15.7455078,19.771875 15.9146094,19.4946094 15.9146094,19.1919922 L15.9146094,2.85058594 C15.9146094,1.27878906 14.6358203,0 13.0640234,0 Z M14.2987891,17.6221875 L8.426875,13.4279297 C8.28640625,13.3276172 8.12183594,13.2774609 7.95730469,13.2774609 C7.79273437,13.2774609 7.62820312,13.3276563 7.48773437,13.4279687 L1.61578125,17.6221875 L1.61578125,2.85058594 C1.61578125,2.16972656 2.16972656,1.61578125 2.85058594,1.61578125 L13.0639844,1.61578125 C13.7448437,1.61578125 14.2987891,2.16972656 14.2987891,2.85058594 L14.2987891,17.6221875 Z" id="Shape"></path>
                </g>
            </g>
        </g>
    </g>
</svg>