<?xml version="1.0" encoding="UTF-8"?>
<svg width="16px" height="16px" viewBox="0 0 16 16" version="1.1" xmlns="http://www.w3.org/2000/svg" xmlns:xlink="http://www.w3.org/1999/xlink">
    <!-- Generator: Sketch 48.1 (47250) - http://www.bohemiancoding.com/sketch -->
    <title>calendar</title>
    <desc>Created with Sketch.</desc>
    <defs></defs>
    <g id="03-Baiviet---02-Tao-bai-viet" stroke="none" stroke-width="1" fill="none" fill-rule="evenodd" transform="translate(-614.000000, -1332.000000)">
        <g id="calendar" transform="translate(614.000000, 1332.000000)" fill="#666666" fill-rule="nonzero">
            <path d="M13.5869388,1.13959184 L12.4995918,1.13959184 L12.4995918,0.695510204 C12.4995918,0.323265306 12.1926531,0.0163265306 11.8204082,0.0163265306 C11.4481633,0.0163265306 11.1412245,0.323265306 11.1412245,0.695510204 L11.1412245,1.13632653 L4.82285714,1.13632653 L4.82285714,0.695510204 C4.82285714,0.323265306 4.51591837,0.0163265306 4.14367347,0.0163265306 C3.77142857,0.0163265306 3.4644898,0.323265306 3.4644898,0.695510204 L3.4644898,1.13632653 L2.41306122,1.13632653 C1.08734694,1.13959184 0,2.22367347 0,3.54938776 L0,13.5706122 C0,14.8963265 1.08734694,15.9836735 2.41306122,15.9836735 L13.5542857,15.9836735 C14.88,15.9836735 15.9673469,14.8963265 16,13.6065306 L16,3.54938776 C16,2.22367347 14.9126531,1.13959184 13.5869388,1.13959184 Z M14.6416327,13.5706122 C14.6416327,14.1485714 14.164898,14.6253061 13.5869388,14.6253061 L2.41306122,14.6253061 C1.83510204,14.6253061 1.35836735,14.1485714 1.35836735,13.5706122 L1.35836735,3.51673469 C1.35836735,2.93877551 1.83510204,2.46204082 2.41306122,2.46204082 L3.4677551,2.46204082 L3.4677551,2.90285714 C3.4677551,3.27510204 3.77469388,3.58204082 4.14693878,3.58204082 C4.51918367,3.58204082 4.82612245,3.31102041 4.82612245,2.9355102 L4.82612245,2.49795918 L11.1444898,2.49795918 L11.1444898,2.90612245 C11.1444898,3.27836735 11.4514286,3.58530612 11.8236735,3.58530612 C12.1632653,3.58530612 12.4702041,3.31428571 12.5028571,2.93877551 L12.5028571,2.49795918 L13.5902041,2.49795918 C14.1681633,2.49795918 14.644898,2.97469388 14.644898,3.55265306 L14.644898,13.5706122 L14.6416327,13.5706122 Z" id="Shape"></path>
            <path d="M4.2122449,6.03102041 L3.39591837,6.03102041 C3.02367347,6.03102041 2.71673469,6.33795918 2.71673469,6.71020408 C2.71673469,7.08244898 3.02367347,7.38938776 3.39591837,7.38938776 L4.2122449,7.38938776 C4.55183673,7.38938776 4.85877551,7.08244898 4.89142857,6.71020408 C4.89142857,6.33469388 4.5844898,6.03102041 4.2122449,6.03102041 Z" id="Shape"></path>
            <path d="M12.6040816,6.03102041 L11.7877551,6.03102041 C11.4155102,6.03102041 11.1085714,6.33795918 11.1085714,6.71020408 C11.1085714,7.08244898 11.4155102,7.38938776 11.7877551,7.38938776 L12.6040816,7.38938776 C12.9436735,7.38938776 13.2506122,7.08244898 13.2832653,6.71020408 C13.2832653,6.33469388 12.9763265,6.03102041 12.6040816,6.03102041 Z" id="Shape"></path>
            <path d="M8.39183673,6.03102041 L7.5755102,6.03102041 C7.20326531,6.03102041 6.89632653,6.33795918 6.89632653,6.71020408 C6.89632653,7.08244898 7.20326531,7.38938776 7.5755102,7.38938776 L8.39183673,7.38938776 C8.76408163,7.38938776 9.07102041,7.08244898 9.07102041,6.71020408 C9.07102041,6.33469388 8.76408163,6.03102041 8.39183673,6.03102041 Z" id="Shape"></path>
            <path d="M4.2122449,8.84897959 L3.39591837,8.84897959 C3.02367347,8.84897959 2.71673469,9.15591837 2.71673469,9.52816327 C2.71673469,9.90040816 3.02367347,10.2073469 3.39591837,10.2073469 L4.2122449,10.2073469 C4.55183673,10.2073469 4.85877551,9.93632653 4.89142857,9.52816327 C4.89142857,9.15591837 4.5844898,8.84897959 4.2122449,8.84897959 Z" id="Shape"></path>
            <path d="M12.6040816,8.84897959 L11.7877551,8.84897959 C11.4155102,8.84897959 11.1085714,9.15591837 11.1085714,9.52816327 C11.1085714,9.90040816 11.4155102,10.2073469 11.7877551,10.2073469 L12.6040816,10.2073469 C12.9436735,10.2073469 13.2506122,9.93632653 13.2832653,9.52816327 C13.2832653,9.15591837 12.9763265,8.84897959 12.6040816,8.84897959 Z" id="Shape"></path>
            <path d="M8.39183673,8.84897959 L7.5755102,8.84897959 C7.20326531,8.84897959 6.89632653,9.15591837 6.89632653,9.52816327 C6.89632653,9.90040816 7.20326531,10.2073469 7.5755102,10.2073469 L8.39183673,10.2073469 C8.76408163,10.2073469 9.07102041,9.93632653 9.07102041,9.52816327 C9.07102041,9.15591837 8.76408163,8.84897959 8.39183673,8.84897959 Z" id="Shape"></path>
            <path d="M4.2122449,11.7028571 L3.39591837,11.7028571 C3.02367347,11.7028571 2.71673469,12.0097959 2.71673469,12.3820408 C2.71673469,12.7542857 3.02367347,13.0612245 3.39591837,13.0612245 L4.2122449,13.0612245 C4.55183673,13.0612245 4.85877551,12.7542857 4.89142857,12.3820408 C4.89142857,12.0097959 4.5844898,11.7028571 4.2122449,11.7028571 Z" id="Shape"></path>
            <path d="M12.6040816,11.7028571 L11.7877551,11.7028571 C11.4155102,11.7028571 11.1085714,12.0097959 11.1085714,12.3820408 C11.1085714,12.7542857 11.4155102,13.0612245 11.7877551,13.0612245 L12.6040816,13.0612245 C12.9436735,13.0612245 13.2506122,12.7542857 13.2832653,12.3820408 C13.2832653,12.0097959 12.9763265,11.7028571 12.6040816,11.7028571 Z" id="Shape"></path>
            <path d="M8.39183673,11.7028571 L7.5755102,11.7028571 C7.20326531,11.7028571 6.89632653,12.0097959 6.89632653,12.3820408 C6.89632653,12.7542857 7.20326531,13.0612245 7.5755102,13.0612245 L8.39183673,13.0612245 C8.76408163,13.0612245 9.07102041,12.7542857 9.07102041,12.3820408 C9.07102041,12.0097959 8.76408163,11.7028571 8.39183673,11.7028571 Z" id="Shape"></path>
        </g>
    </g>
</svg>