<?xml version="1.0" encoding="UTF-8"?>
<svg width="32px" height="27px" viewBox="0 0 32 27" version="1.1" xmlns="http://www.w3.org/2000/svg" xmlns:xlink="http://www.w3.org/1999/xlink">
    <!-- Generator: Sketch 48.1 (47250) - http://www.bohemiancoding.com/sketch -->
    <title>119-photo-camera</title>
    <desc>Created with Sketch.</desc>
    <defs></defs>
    <g id="02-Congdong---03-Tao-cong-dong" stroke="none" stroke-width="1" fill="none" fill-rule="evenodd" transform="translate(-794.000000, -674.000000)">
        <g id="Group" transform="translate(776.000000, 674.000000)" fill="#666666" fill-rule="nonzero">
            <g id="119-photo-camera" transform="translate(18.000000, 0.000000)">
                <path d="M28.03325,4.06357183 L23.3769375,4.06357183 L21.086625,0.583205724 C20.846875,0.218884181 20.4433125,0 20.011125,0 L11.988875,0 C11.5566875,0 11.1530625,0.218820864 10.913375,0.583205724 L8.6230625,4.06357183 L3.9666875,4.06357183 C1.7795,4.06357183 0,5.866248 0,8.08206251 L0,22.9815093 C0,25.1973238 1.7795,27 3.9666875,27 L28.03325,27 C30.2205,27 32,25.1973238 32,22.9815093 L32,8.08206251 C32,5.86631131 30.2205,4.06357183 28.03325,4.06357183 Z M29.41475,22.9815093 C29.41475,23.7532074 28.795,24.3809245 28.0333125,24.3809245 L3.9666875,24.3809245 C3.205,24.3809245 2.5853125,23.7531441 2.5853125,22.9815093 L2.5853125,8.08206251 C2.5853125,7.31042771 3.2050625,6.68264737 3.9666875,6.68264737 L9.3148125,6.68264737 C9.747,6.68264737 10.150625,6.4638265 10.390375,6.09950496 L12.6806875,2.61913885 L19.31925,2.61913885 L21.6095625,6.09950496 C21.8493125,6.4638265 22.252875,6.68264737 22.685125,6.68264737 L28.03325,6.68264737 C28.795,6.68264737 29.4146875,7.31042771 29.4146875,8.08206251 L29.4146875,22.9815093 L29.41475,22.9815093 Z" id="Shape"></path>
                <path d="M15.5,8 C11.9158604,8 9,10.9159216 9,14.5 C9,18.0841396 11.9159216,21 15.5,21 C19.0840784,21 22,18.0840784 22,14.5 C22,10.9159216 19.0841396,8 15.5,8 Z M15.5,18.4695441 C13.3112083,18.4695441 11.5304559,16.6887917 11.5304559,14.5 C11.5304559,12.3112083 13.3112083,10.5304559 15.5,10.5304559 C17.6887917,10.5304559 19.4695441,12.3112083 19.4695441,14.5 C19.4695441,16.6888529 17.6887917,18.4695441 15.5,18.4695441 Z" id="Shape"></path>
            </g>
        </g>
    </g>
</svg>