<?xml version="1.0" encoding="UTF-8"?>
<svg width="16px" height="16px" viewBox="0 0 16 16" version="1.1" xmlns="http://www.w3.org/2000/svg" xmlns:xlink="http://www.w3.org/1999/xlink">
    <!-- Generator: Sketch 48.1 (47250) - http://www.bohemiancoding.com/sketch -->
    <title>005-close-1</title>
    <desc>Created with Sketch.</desc>
    <defs></defs>
    <g id="04-Trang-ca-nhan---04-Theo-doi" stroke="none" stroke-width="1" fill="none" fill-rule="evenodd" transform="translate(-1114.000000, -750.000000)">
        <g id="active" transform="translate(1090.000000, 740.000000)" fill="#FFFFFF" fill-rule="nonzero">
            <g id="Group-3" transform="translate(24.000000, 8.000000)">
                <g id="005-close-1" transform="translate(0.000000, 2.000000)">
                    <path d="M13.7195625,0 L2.28046875,0 C1.02303125,0 0,1.02303125 0,2.28046875 L0,13.7195312 C0,14.977 1.02303125,16 2.28046875,16 L13.7195312,16 C14.977,16 16,14.977 16,13.7195625 L16,2.28046875 C16,1.02303125 14.977,0 13.7195625,0 Z M14.707375,13.7195312 C14.707375,14.2642188 14.2642187,14.707375 13.7195625,14.707375 L2.28046875,14.707375 C1.73578125,14.707375 1.292625,14.2642188 1.292625,13.7195625 L1.292625,2.28046875 C1.292625,1.73578125 1.73578125,1.292625 2.28046875,1.292625 L13.7195312,1.292625 C14.2642187,1.292625 14.707375,1.73578125 14.707375,2.28046875 L14.707375,13.7195312 Z" id="Shape"></path>
                    <path d="M12.6783306,4.26518103 C12.3247121,3.91160632 11.751401,3.91160632 11.3977825,4.26518103 L6.84898866,8.81393109 L4.54571823,6.51066065 C4.19214351,6.15704216 3.61878858,6.15704216 3.26521387,6.51066065 C2.91159538,6.86427915 2.91159538,7.4375903 3.26521387,7.79120879 L6.20878026,10.7347752 C6.38556762,10.9116063 6.61734381,11 6.84907622,11 C7.08080863,11 7.31254104,10.9116063 7.48937218,10.7347752 L12.6783306,5.54572917 C13.0319491,5.19211068 13.0319491,4.61879953 12.6783306,4.26518103 Z" id="Shape"></path>
                </g>
            </g>
        </g>
    </g>
</svg>