<?xml version="1.0" encoding="UTF-8"?>
<svg width="16px" height="16px" viewBox="0 0 16 16" version="1.1" xmlns="http://www.w3.org/2000/svg" xmlns:xlink="http://www.w3.org/1999/xlink">
    <!-- Generator: Sketch 48.1 (47250) - http://www.bohemiancoding.com/sketch -->
    <title>16x16/comment-active</title>
    <desc>Created with Sketch.</desc>
    <defs></defs>
    <g id="Symbols" stroke="none" stroke-width="1" fill="none" fill-rule="evenodd">
        <g id="16x16/comment-active" fill="#ECA829" fill-rule="nonzero">
            <g id="Shape">
                <path d="M15.9989688,7.14734375 C15.8960938,5.28275 15.1122188,3.5286875 13.7917813,2.20821875 C12.4713438,0.88775 10.71725,0.10390625 8.8526875,0.00103125 C8.8408125,0.000375 8.82896875,6.25e-05 8.81709375,6.25e-05 L8.41021875,6.25e-05 C8.40375,0 8.39746875,0 8.391,0 C7.22290625,0 6.0549375,0.27815625 5.01475,0.80353125 C3.753,1.434125 2.69390625,2.4015625 1.952,3.60125 C1.21009375,4.8009375 0.81765625,6.180625 0.81709375,7.58975 C0.81428125,8.672875 1.05071875,9.7563125 1.50275,10.7405625 L0.03321875,15.1492812 C-0.0441875,15.3815313 0.01625,15.6375937 0.18934375,15.8106875 C0.31253125,15.933875 0.47771875,16 0.6464375,16 C0.7148125,15.9999688 0.78378125,15.989125 0.85071875,15.9668125 L5.259375,14.4972188 C6.237875,14.9465937 7.31415625,15.1829063 8.38959375,15.1829063 C8.39590625,15.1829063 8.40240625,15.1829063 8.40871875,15.182875 C9.81925,15.1823438 11.1989375,14.789875 12.398625,14.0479688 C13.5983438,13.3060938 14.5657813,12.247 15.1951563,10.9876875 C15.7245313,9.939625 16.0028125,8.76503125 15.9999375,7.590875 L15.9999375,7.18290625 C15.9999375,7.1710625 15.9995938,7.1591875 15.9989688,7.14734375 Z"></path>
            </g>
        </g>
    </g>
</svg>