<?xml version="1.0" encoding="UTF-8"?>
<svg width="16px" height="16px" viewBox="0 0 16 16" version="1.1" xmlns="http://www.w3.org/2000/svg" xmlns:xlink="http://www.w3.org/1999/xlink">
    <!-- Generator: Sketch 48.1 (47250) - http://www.bohemiancoding.com/sketch -->
    <title>16x16/dislike</title>
    <desc>Created with Sketch.</desc>
    <defs></defs>
    <g id="Symbols" stroke="none" stroke-width="1" fill="none" fill-rule="evenodd">
        <g id="16x16/dislike" fill="#666666" fill-rule="nonzero">
            <g id="Shape">
                <path d="M15.0955102,2.36455696 C14.9159184,0.896202532 13.8873469,0.0185654008 12.3395918,0.0185654008 L5.66530612,0.0185654008 C4.94367347,0.0185654008 4.29714286,0.356118143 3.86612245,0.889451477 C3.56571429,0.6092827 3.16734694,0.440506329 2.73306122,0.440506329 L1.7044898,0.440506329 C0.764081633,0.440506329 0,1.23037975 0,2.19915612 L0,8.26160338 C0,9.23375527 0.764081633,10.0236287 1.7044898,10.0236287 L2.73306122,10.0236287 C3.18693878,10.0236287 3.59836735,9.83797468 3.90204082,9.54092827 L4.17306122,9.62869198 C4.17959184,9.62869198 4.18285714,9.63206751 4.18938776,9.63206751 C4.29061224,9.66244726 6.6644898,10.3848101 6.6644898,12.4708861 L6.6644898,15.2894515 C6.6644898,15.542616 6.8244898,15.7654008 7.05632653,15.843038 C7.08571429,15.8531646 7.49387755,15.9814346 8.01959184,15.9814346 C8.47673469,15.9814346 9.02204082,15.8835443 9.48897959,15.5291139 C10.1257143,15.043038 10.4522449,14.2295359 10.4522449,13.1122363 L10.4522449,10.7763713 L13.7469388,10.7763713 C14.9910204,10.7763713 16,9.72995781 16,8.44725738 C16,8.30886076 15.9902041,8.17046414 15.9673469,8.03881857 L15.0955102,2.36455696 Z M2.73306122,8.86919831 L1.7044898,8.86919831 C1.38122449,8.86919831 1.12,8.59915612 1.12,8.2649789 L1.12,2.19915612 C1.12,1.8649789 1.38122449,1.59493671 1.7044898,1.59493671 L2.73306122,1.59493671 C3.05632653,1.59493671 3.31755102,1.8649789 3.31755102,2.19915612 L3.31755102,8.26160338 C3.31755102,8.59578059 3.05632653,8.86919831 2.73306122,8.86919831 Z M13.7469388,9.62194093 L9.89061224,9.62194093 C9.58040816,9.62194093 9.32897959,9.88185654 9.32897959,10.1991561 L9.32897959,13.1156118 C9.32897959,13.8447257 9.15918367,14.3443038 8.82612245,14.5974684 C8.52897959,14.8270042 8.1044898,14.8506329 7.78122449,14.8168776 L7.78122449,12.4742616 C7.78122449,9.55780591 4.73795918,8.59240506 4.49959184,8.52151899 L4.41795918,8.49451477 C4.4277551,8.41687764 4.43428571,8.33924051 4.43428571,8.26160338 L4.43428571,2.44556962 C4.43428571,1.74683544 4.98612245,1.17637131 5.66204082,1.17637131 L12.3363265,1.17637131 C13.8220408,1.17637131 13.9428571,2.18565401 13.9820408,2.5164557 C13.9820408,2.52320675 13.9853061,2.52995781 13.9853061,2.53670886 L14.8146939,7.92742616 L14.8604082,8.21772152 C14.8734694,8.29198312 14.8767347,8.36962025 14.8767347,8.44725738 C14.88,9.09535865 14.3706122,9.62194093 13.7469388,9.62194093 Z"></path>
            </g>
        </g>
    </g>
</svg>