<?xml version="1.0" encoding="UTF-8"?>
<svg width="16px" height="16px" viewBox="0 0 16 16" version="1.1" xmlns="http://www.w3.org/2000/svg" xmlns:xlink="http://www.w3.org/1999/xlink">
    <!-- Generator: Sketch 48.1 (47250) - http://www.bohemiancoding.com/sketch -->
    <title>103-download-1</title>
    <desc>Created with Sketch.</desc>
    <defs></defs>
    <g id="04-Trang-ca-nhan---01-CV-" stroke="none" stroke-width="1" fill="none" fill-rule="evenodd" transform="translate(-598.000000, -4006.000000)">
        <g id="Group-15" transform="translate(430.000000, 3994.000000)" fill="#FFFFFF" fill-rule="nonzero">
            <g id="Group-3" transform="translate(168.000000, 10.000000)">
                <g id="103-download-1" transform="translate(0.000000, 2.000000)">
                    <path d="M14.8262,11.0305312 C14.4454333,11.0305312 14.1368,11.319875 14.1368,11.6768437 L14.1368,13.8829375 C14.1368,14.3375313 13.7423,14.7073437 13.2574333,14.7073437 L2.27593333,14.7073437 C1.79103333,14.7073437 1.39656667,14.3375 1.39656667,13.8829375 L1.39656667,11.6768437 C1.39656667,11.319875 1.0879,11.0305312 0.707166667,11.0305312 C0.326433333,11.0305312 0.0177666667,11.319875 0.0177666667,11.6768437 L0.0177666667,13.8829375 C0.0177666667,15.0502813 1.0308,16 2.27596667,16 L13.2574667,16 C14.5026667,16 15.5156667,15.0502812 15.5156667,13.8829375 L15.5156667,11.6768437 C15.5156,11.319875 15.2069667,11.0305312 14.8262,11.0305312 Z" id="Shape"></path>
                    <path d="M11.3917333,7.54296875 C11.1225,7.2905625 10.686,7.2905625 10.4167667,7.54296875 L7.76666667,10.0274375 L5.1166,7.54296875 C4.84736667,7.29059375 4.41083333,7.2905625 4.14163333,7.54296875 C3.8724,7.795375 3.8724,8.20459375 4.14163333,8.457 L7.2792,11.3984688 C7.4085,11.5196875 7.58386667,11.5877813 7.7667,11.5877813 C7.94956667,11.5877813 8.1249,11.5196875 8.2542,11.3984688 L11.3917667,8.457 C11.6609333,8.204625 11.6609333,7.795375 11.3917333,7.54296875 Z" id="Shape"></path>
                    <path d="M7.76666667,0 C7.3859,0 7.07726667,0.289375 7.07726667,0.6463125 L7.07726667,10.9414688 C7.07726667,11.2984375 7.38593333,11.5877813 7.76666667,11.5877813 C8.14743333,11.5877813 8.45606667,11.2984375 8.45606667,10.9414688 L8.45606667,0.6463125 C8.45606667,0.289375 8.14743333,0 7.76666667,0 Z" id="Shape"></path>
                </g>
            </g>
        </g>
    </g>
</svg>