<?xml version="1.0" encoding="UTF-8"?>
<svg width="16px" height="16px" viewBox="0 0 16 16" version="1.1" xmlns="http://www.w3.org/2000/svg" xmlns:xlink="http://www.w3.org/1999/xlink">
    <!-- Generator: Sketch 48.1 (47250) - http://www.bohemiancoding.com/sketch -->
    <title>101-edit</title>
    <desc>Created with Sketch.</desc>
    <defs></defs>
    <g id="01-Home-New" stroke="none" stroke-width="1" fill="none" fill-rule="evenodd" transform="translate(-1500.000000, -138.000000)">
        <g id="Header" fill="#FFFFFF" fill-rule="nonzero">
            <g id="Menu-bar" transform="translate(0.000000, 121.000000)">
                <g id="b" transform="translate(1485.000000, 7.000000)">
                    <g id="101-edit" transform="translate(15.000000, 10.000000)">
                        <path d="M13.8829688,9.30978125 C13.526,9.30978125 13.2366563,9.599125 13.2366563,9.95609375 L13.2366563,13.8829688 C13.2366563,14.3375625 12.8668125,14.707375 12.41225,14.707375 L2.1170625,14.707375 C1.66246875,14.707375 1.29265625,14.3375313 1.29265625,13.8829688 L1.29265625,3.5878125 C1.29265625,3.13321875 1.6625,2.76340625 2.1170625,2.76340625 L6.0439375,2.76340625 C6.400875,2.76340625 6.69025,2.47403125 6.69025,2.11709375 C6.69025,1.76015625 6.400875,1.47078125 6.0439375,1.47078125 L2.1170625,1.47078125 C0.94971875,1.47078125 0,2.4205 0,3.58784375 L0,13.883 C3.125e-05,15.0502813 0.94975,16 2.1170625,16 L12.4122188,16 C13.5795625,16 14.5292813,15.0502813 14.5292813,13.8829375 L14.5292813,9.9560625 C14.5292813,9.599125 14.2399375,9.30978125 13.8829688,9.30978125 Z" id="Shape"></path>
                        <path d="M15.8106875,3.13078125 L12.8692188,0.1893125 C12.6168125,-0.06309375 12.2075938,-0.06309375 11.9551875,0.1893125 L4.60153125,7.543 C4.48034375,7.66421875 4.41221875,7.828625 4.41221875,8.00003125 L4.41221875,10.9415 C4.41221875,11.2984687 4.70159375,11.5878125 5.05853125,11.5878125 L8,11.5878125 C8.1714375,11.5878125 8.3358125,11.5197188 8.457,11.3985312 L15.8106875,4.0448125 C15.9319063,3.92359375 16,3.7591875 16,3.58778125 C16,3.416375 15.9319063,3.252 15.8106875,3.13078125 Z M7.7323125,10.2951562 L5.704875,10.2951562 L5.704875,8.26771875 L12.4122187,1.560375 L14.4396562,3.5878125 L7.7323125,10.2951562 Z" id="Shape"></path>
                    </g>
                </g>
            </g>
        </g>
    </g>
</svg>