<?xml version="1.0" encoding="UTF-8"?>
<svg width="16px" height="14px" viewBox="0 0 16 14" version="1.1" xmlns="http://www.w3.org/2000/svg" xmlns:xlink="http://www.w3.org/1999/xlink">
    <!-- Generator: Sketch 48.1 (47250) - http://www.bohemiancoding.com/sketch -->
    <title>closed-envelope-email</title>
    <desc>Created with Sketch.</desc>
    <defs></defs>
    <g id="01-Home-New" stroke="none" stroke-width="1" fill="none" fill-rule="evenodd" transform="translate(-1380.000000, -139.000000)">
        <g id="Header" fill="#ECA829" fill-rule="nonzero">
            <g id="Menu-bar" transform="translate(0.000000, 121.000000)">
                <g id="b" transform="translate(1360.000000, 7.000000)">
                    <g id="closed-envelope-email" transform="translate(20.000000, 11.000000)">
                        <path d="M15.9755789,0.646846682 C15.9755789,0.304512586 15.6954874,0.0244210526 15.3531533,0.0244210526 L0.622425629,0.0244210526 C0.280091533,0.0244210526 0,0.304512586 0,0.646846682 L0,12.4729336 C0,12.8152677 0.280091533,13.0953593 0.622425629,13.0953593 L15.3531533,13.0953593 C15.6954874,13.0953593 15.9755789,12.8152677 15.9755789,12.4729336 L15.9755789,0.646846682 Z M1.24485126,11.850508 L1.24485126,4.4747643 L7.50022883,9.858746 C7.6143524,9.9624714 7.74919908,10.0039908 7.89444394,10.0039908 C8.03968879,10.0039908 8.19529519,9.95210984 8.31978032,9.858746 L14.7307643,4.49552403 L14.7307643,11.850508 L1.24485126,11.850508 Z M14.7307277,1.26927231 L14.7307277,2.87721739 C14.6270023,2.88757895 14.6788467,2.89797712 14.6684851,2.89797712 L7.90480549,8.57237529 L1.26561098,2.86681922 C1.25524943,2.85645767 1.24485126,2.8460595 1.24485126,2.83569794 L1.24485126,1.26927231 L14.7307277,1.26927231 Z" id="Shape"></path>
                    </g>
                </g>
            </g>
        </g>
    </g>
</svg>