<?xml version="1.0" encoding="UTF-8"?>
<svg width="20px" height="24px" viewBox="0 0 20 24" version="1.1" xmlns="http://www.w3.org/2000/svg" xmlns:xlink="http://www.w3.org/1999/xlink">
    <!-- Generator: Sketch 48.1 (47250) - http://www.bohemiancoding.com/sketch -->
    <title>icon</title>
    <desc>Created with Sketch.</desc>
    <defs></defs>
    <g id="01-Home-New" stroke="none" stroke-width="1" fill="none" fill-rule="evenodd" transform="translate(-850.000000, -1173.000000)">
        <g id="Group-31" transform="translate(0.000000, 1160.000000)">
            <g id="Title">
                <g id="icon" transform="translate(848.000000, 13.000000)">
                    <rect id="Rectangle" x="0" y="0" width="24" height="24"></rect>
                    <g id="flag" transform="translate(2.250000, 0.000000)">
                        <rect id="Rectangle-path" x="1.37565714" y="1.37142857" width="1.44057143" height="1"></rect>
                        <polygon id="Rectangle-path" fill="#FFFFFF" points="1.37565714 3.6088 2.81622857 3.6088 2.81622857 22.5777143 1.37565714 22.5777143 1.37565714 19.7116699 1.37565714 18.1567383"></polygon>
                        <path d="M15.0134857,7.87657143 L17.4035429,3.6088 L4.18765714,3.6088 L4.18765714,12.8144 L17.4035429,12.8144 L15.0134857,8.54668571 C14.8969143,8.33857143 14.8968571,8.08474286 15.0134857,7.87657143 Z" id="Shape" fill="#ECA829" fill-rule="nonzero"></path>
                        <path d="M16.3977143,8.21165714 L19.1718286,3.25817143 C19.2907429,3.04577143 19.2881714,2.78634286 19.1652,2.57634286 C19.0421143,2.36634286 18.8169714,2.23731429 18.5735429,2.23731429 L4.18765714,2.23731429 L4.18765714,0.685714286 C4.18765714,0.306971429 3.88068571,0 3.50194286,0 L0.689942857,0 C0.3112,0 0.00422857143,0.306971429 0.00422857143,0.685714286 L0.00422857143,23.2634286 C0.00422857143,23.6421143 0.3112,23.9491429 0.689942857,23.9491429 L3.50194286,23.9491429 C3.88068571,23.9491429 4.18765714,23.6421143 4.18765714,23.2634286 L4.18765714,14.1858286 L18.5735429,14.1858286 C18.8169714,14.1858286 19.0420571,14.0568 19.1652,13.8468 C19.2881714,13.6368 19.2907429,13.3773714 19.1718286,13.1649714 L16.3977143,8.21165714 Z M2.81622857,22.5777143 L1.37565714,22.5777143 L1.37565714,3.6088 L2.81622857,3.6088 L2.81622857,22.5777143 Z M2.81622857,2.23737143 L1.37565714,2.23737143 L1.37565714,1.37142857 L2.81622857,1.37142857 L2.81622857,2.23737143 Z M4.18765714,12.8144 L4.18765714,3.6088 L17.4035429,3.6088 L15.0134857,7.87657143 C14.8968571,8.08474286 14.8969143,8.33857143 15.0134857,8.54668571 L17.4035429,12.8144 L4.18765714,12.8144 Z" id="Shape" fill="#222222" fill-rule="nonzero"></path>
                    </g>
                </g>
            </g>
        </g>
    </g>
</svg>