<?xml version="1.0" encoding="UTF-8"?>
<svg width="19px" height="20px" viewBox="0 0 19 20" version="1.1" xmlns="http://www.w3.org/2000/svg" xmlns:xlink="http://www.w3.org/1999/xlink">
    <!-- Generator: Sketch 48.1 (47250) - http://www.bohemiancoding.com/sketch -->
    <title>086-home</title>
    <desc>Created with Sketch.</desc>
    <defs></defs>
    <g id="m_06-Quen-mat-khau" stroke="none" stroke-width="1" fill="none" fill-rule="evenodd" transform="translate(-21.000000, -15.000000)">
        <g id="Group-3" fill="#222222" fill-rule="nonzero">
            <g id="086-home" transform="translate(21.000000, 15.000000)">
                <path d="M17.8704297,6.60464844 L9.59753906,0.170195313 C9.30582031,-0.0566796875 8.89730469,-0.05671875 8.60554687,0.170195313 L0.33265625,6.60464844 C0.135859375,6.75769531 0.0207421875,6.99304688 0.0207421875,7.24234375 L0.0207421875,17.3536719 C0.0207421875,18.8128516 1.20789063,20 2.66707031,20 L15.5360156,20 C16.9952344,20 18.1823438,18.8128516 18.1823828,17.3536719 L18.1823828,7.24234375 C18.1823828,6.99304688 18.0672266,6.75773438 17.8704297,6.60464844 Z M16.5665234,17.3536719 C16.5665234,17.9219141 16.1042188,18.3841797 15.5360156,18.3841797 L2.66707031,18.3841797 C2.09882812,18.3841797 1.6365625,17.921875 1.6365625,17.3536719 L1.6365625,7.63746094 L9.10152344,1.83136719 L16.5665234,7.63746094 L16.5665234,17.3536719 Z" id="Shape"></path>
                <path d="M11.8591797,9.19207031 L6.34390625,9.19207031 C5.89773438,9.19207031 5.53601563,9.55378906 5.53601563,9.99996094 L5.53601563,19.1920703 C5.53601563,19.6382812 5.89773438,19.9999609 6.34390625,19.9999609 C6.79007813,19.9999609 7.15179688,19.6382812 7.15179688,19.1920703 L7.15179688,10.8078906 L11.0512109,10.8078906 L11.0512109,19.1921094 C11.0512109,19.6383203 11.4128906,20 11.8591016,20 C12.3053125,20 12.6669922,19.6383203 12.6670313,19.1921094 L12.6670313,10 C12.6670703,9.55382813 12.3053906,9.19207031 11.8591797,9.19207031 Z" id="Shape"></path>
            </g>
        </g>
    </g>
</svg>