<?xml version="1.0" encoding="UTF-8"?>
<svg width="24px" height="24px" viewBox="0 0 24 24" version="1.1" xmlns="http://www.w3.org/2000/svg" xmlns:xlink="http://www.w3.org/1999/xlink">
    <!-- Generator: Sketch 48.1 (47250) - http://www.bohemiancoding.com/sketch -->
    <title>icon</title>
    <desc>Created with Sketch.</desc>
    <defs></defs>
    <g id="01-Home-New" stroke="none" stroke-width="1" fill="none" fill-rule="evenodd" transform="translate(-114.000000, -1174.000000)">
        <g id="Group-31" transform="translate(0.000000, 1160.000000)">
            <g id="Title">
                <g id="Group-15" transform="translate(114.000000, 12.000000)">
                    <g id="icon" transform="translate(0.000000, 2.000000)">
                        <g transform="translate(0.000000, 0.750000)" id="Shape">
                            <path d="M18.513663,11.4683719 L18.513663,1.31124889 L3.04201313,1.31124889 L3.04201313,11.2572174 C3.04201313,11.3493653 3.02221444,11.4405046 2.98398249,11.5241595 L2.05591247,13.556667 L5.36722976,11.5584496 C5.46480525,11.4994771 5.57640263,11.4683719 5.69015317,11.4683719 L18.513663,11.4683719 Z M5.0777593,3.64865102 L16.6758512,3.64865102 C17.02393,3.64865102 17.3060481,3.93385283 17.3060481,4.28561765 C17.3060481,4.63738247 17.02393,4.92258428 16.6758512,4.92258428 L5.0777593,4.92258428 C4.72973304,4.92258428 4.44756236,4.63738247 4.44756236,4.28561765 C4.44756236,3.93385283 4.72973304,3.64865102 5.0777593,3.64865102 Z M5.0777593,8.40870265 C4.72973304,8.40870265 4.44756236,8.12350084 4.44756236,7.77173602 C4.44756236,7.41986503 4.72973304,7.13476939 5.0777593,7.13476939 L12.7697856,7.13476939 C13.1178118,7.13476939 13.3999825,7.41986503 13.3999825,7.77173602 C13.3999825,8.12350084 13.1178118,8.40870265 12.7697856,8.40870265 L5.0777593,8.40870265 Z"></path>
                            <path d="M20.9597724,18.0380457 L20.9597724,8.35790456 L19.7740569,8.35790456 L19.7740569,11.5073861 C19.7740569,12.1883034 19.2258906,12.7423582 18.5522101,12.7423582 L5.90820131,12.7423582 L5.90820131,18.228021 L18.3938731,18.228021 C18.5076236,18.228021 18.619221,18.2592323 18.716849,18.3180987 L21.9011816,20.2395616 L21.0178556,18.3050409 C20.9795711,18.2212267 20.9597724,18.1301935 20.9597724,18.0380457 Z M15.4138818,15.7580767 L7.72185558,15.7580767 C7.37382932,15.7580767 7.09165864,15.4728749 7.09165864,15.1211101 C7.09165864,14.7693453 7.37382932,14.4841434 7.72185558,14.4841434 L15.4138818,14.4841434 C15.7619081,14.4841434 16.0440788,14.7693453 16.0440788,15.1211101 C16.0440788,15.4728749 15.7619081,15.7580767 15.4138818,15.7580767 Z" fill="#ECA829" fill-rule="nonzero"></path>
                            <path d="M23.8990635,21.5746437 L22.2201663,17.8980723 L22.2201663,8.30386856 C22.2201663,7.63112563 21.6787746,7.0839713 21.0132867,7.0839713 L19.7740569,7.0839713 L19.7740569,1.27223468 C19.7740569,0.591317355 19.2258906,0.0372625479 18.5522101,0.0372625479 L3.00336105,0.0372625479 C2.32968053,0.0372625479 1.78156674,0.591317355 1.78156674,1.27223468 L1.78156674,11.1173502 L0.0580306346,14.8918552 C-0.0577680525,15.145421 0.00336105033,15.4456977 0.208752735,15.632382 C0.327492341,15.7402947 0.478371991,15.7957639 0.630354486,15.7957639 C0.741374179,15.7957639 0.853076586,15.7660919 0.953225383,15.7056862 L4.64775492,13.476303 L4.64775492,18.282057 C4.64775492,18.9546937 5.18914661,19.5018481 5.85463457,19.5018481 L18.2199387,19.5018481 L23.0037637,22.3885278 C23.1039125,22.4489865 23.2155624,22.4784993 23.3266346,22.4784993 C23.4786696,22.4784993 23.6294967,22.4230301 23.7481838,22.3151174 C23.953733,22.1284331 24.0148096,21.8282095 23.8990635,21.5746437 Z M18.716849,18.3180456 C18.619221,18.2591793 18.5076236,18.2279679 18.3938731,18.2279679 L5.90820131,18.2279679 L5.90820131,12.7423051 L18.5522626,12.7423051 C19.2259431,12.7423051 19.7741094,12.1882503 19.7741094,11.507333 L19.7741094,8.35785148 L20.9598249,8.35785148 L20.9598249,18.0379926 C20.9598249,18.1301404 20.9796236,18.2211736 21.0178556,18.3049347 L21.9011816,20.2394554 L18.716849,18.3180456 Z M2.05591247,13.556667 L2.98398249,11.5241595 C3.02221444,11.4405046 3.04201313,11.3493653 3.04201313,11.2572174 L3.04201313,1.31124889 L18.513663,1.31124889 L18.513663,11.4683719 L5.69015317,11.4683719 C5.57640263,11.4683719 5.46480525,11.4994771 5.36722976,11.5584496 L2.05591247,13.556667 Z" fill="#222222" fill-rule="nonzero"></path>
                            <path d="M5.0777593,4.92258428 L16.6758512,4.92258428 C17.02393,4.92258428 17.3060481,4.63738247 17.3060481,4.28561765 C17.3060481,3.93385283 17.02393,3.64865102 16.6758512,3.64865102 L5.0777593,3.64865102 C4.72973304,3.64865102 4.44756236,3.93385283 4.44756236,4.28561765 C4.44756236,4.63738247 4.72973304,4.92258428 5.0777593,4.92258428 Z" fill="#222222" fill-rule="nonzero"></path>
                            <path d="M13.3999825,7.77173602 C13.3999825,7.41986503 13.1178118,7.13476939 12.7697856,7.13476939 L5.0777593,7.13476939 C4.72973304,7.13476939 4.44756236,7.41986503 4.44756236,7.77173602 C4.44756236,8.12350084 4.72973304,8.40870265 5.0777593,8.40870265 L12.7697856,8.40870265 C13.1178118,8.40870265 13.3999825,8.12350084 13.3999825,7.77173602 Z" fill="#222222" fill-rule="nonzero"></path>
                            <path d="M15.4138818,14.4841434 L7.72185558,14.4841434 C7.37382932,14.4841434 7.09165864,14.7693453 7.09165864,15.1211101 C7.09165864,15.4728749 7.37382932,15.7580767 7.72185558,15.7580767 L15.4138818,15.7580767 C15.7619081,15.7580767 16.0440788,15.4728749 16.0440788,15.1211101 C16.0440788,14.7693453 15.7619081,14.4841434 15.4138818,14.4841434 Z" fill="#222222" fill-rule="nonzero"></path>
                        </g>
                        <rect id="Rectangle-12" x="0" y="0" width="24" height="24"></rect>
                    </g>
                </g>
            </g>
        </g>
    </g>
</svg>