<?xml version="1.0" encoding="UTF-8"?>
<svg width="24px" height="21px" viewBox="0 0 24 21" version="1.1" xmlns="http://www.w3.org/2000/svg" xmlns:xlink="http://www.w3.org/1999/xlink">
    <!-- Generator: Sketch 48.1 (47250) - http://www.bohemiancoding.com/sketch -->
    <title>icon</title>
    <desc>Created with Sketch.</desc>
    <defs></defs>
    <g id="03-Baiviet---01-View" stroke="none" stroke-width="1" fill="none" fill-rule="evenodd" transform="translate(-1327.000000, -255.000000)">
        <g id="Co-the" transform="translate(1260.000000, 240.000000)">
            <g id="Tit">
                <g id="Group-10" transform="translate(67.000000, 12.000000)">
                    <g id="icon" transform="translate(0.000000, 1.000000)">
                        <g id="like" transform="translate(0.000000, 2.000000)">
                            <path d="M6.72162594,10.9460554 L6.69412594,10.9460554 C6.70462594,11.0605554 6.71362594,11.0375554 6.72162594,10.9460554 Z" id="Shape"></path>
                            <path d="M21.2991839,8.72874559 L17.2300655,8.72874559 C17.1984484,8.72874559 17.1668312,8.72669018 17.1354559,8.72251889 C16.6699647,8.6612796 16.1004937,8.5288262 15.8267003,8.04423174 C15.5261259,7.51242317 15.7601411,6.97565743 16.0312141,6.35413602 C16.3631033,5.59302771 16.8646247,4.44290176 16.7772091,2.67306801 C16.7769068,2.66702267 16.7773904,2.66121914 16.7772091,2.65523426 C16.7771486,2.64918892 16.7763023,2.64332494 16.7763023,2.6372796 C16.7763023,1.98740554 16.2475768,1.45861965 15.5976423,1.45861965 C14.9485542,1.45861965 14.4203728,1.98613602 14.4191033,2.63492191 C14.472,4.57390428 14.1422267,4.97628212 12.7503476,6.35153652 C12.6235768,6.47667506 12.4864685,6.61221159 12.3381763,6.76056423 C10.912927,8.1858136 10.7533904,10.2504786 10.7519395,10.2710932 C10.7254005,10.6511637 10.4092897,10.945995 10.0282519,10.945995 L6.70234761,10.945995 C6.70234761,10.945995 6.70198489,17.726267 6.70192443,17.7317683 L9.73088161,17.7317683 C10.0472947,17.7317683 11.1254207,17.7721511 11.7121814,18.2919295 C11.935194,18.4894912 12.0736322,18.679194 12.1738035,18.8389723 C12.4544887,19.2861461 13.014529,19.2548312 13.0676675,19.2556776 C13.0676675,19.2556776 19.5876877,19.2376625 20.032262,19.2049572 C20.6518489,19.1594358 21.1154055,18.9231839 21.4101763,18.5027305 C21.6161411,18.2088665 21.6726045,17.918267 21.6730882,17.9155466 C21.9422872,16.1477078 22.6214811,11.2763123 22.5363023,9.95709824 C22.4739144,8.99135516 21.5287254,8.76864484 21.2991839,8.72874559 Z" id="Shape"></path>
                            <path d="M4.76777834,10.6357481 L1.93450882,10.6357481 C1.66784887,10.6357481 1.45088161,10.8527154 1.45088161,11.1193753 L1.45088161,17.7163526 C1.45088161,17.9830126 1.66784887,18.1999798 1.93450882,18.1999798 L4.76777834,18.1999798 C5.03443829,18.1999798 5.25140554,17.9830126 5.25140554,17.7163526 L5.25140554,11.1193753 C5.25140554,10.8527154 5.03443829,10.6357481 4.76777834,10.6357481 Z" id="Shape" fill="#ECA829" fill-rule="nonzero"></path>
                            <path d="M23.9841008,9.86351637 C23.8672443,8.05450882 22.2705491,7.38468514 21.4425793,7.28318388 C21.4133804,7.27955668 21.3838186,7.27780353 21.3543778,7.27780353 L17.2797582,7.27780353 C17.2581763,7.27465995 17.237864,7.27151637 17.2188816,7.2683728 C17.2613199,7.16288161 17.3140957,7.04191436 17.3611285,6.93400504 C17.7236675,6.10258942 18.3304383,4.71107305 18.2262771,2.60155164 C18.2262771,2.60143073 18.2262166,2.60130982 18.2262166,2.60118892 C18.2067506,1.16789924 17.035466,0.00779848866 15.5976423,0.00779848866 C14.147728,0.00779848866 12.9681008,1.18742569 12.9681008,2.63734005 C12.9681008,2.64084635 12.9685844,2.64417128 12.9686448,2.64767758 C12.9687053,2.65118388 12.9682821,2.65444836 12.968403,2.65795466 C13.0081209,4.05726952 12.9601209,4.10466499 11.7306196,5.31935516 C11.6019144,5.44654912 11.4626902,5.5840806 11.3121008,5.73460957 C10.0541259,6.99270529 9.57805542,8.60052393 9.40249874,9.49511335 L5.81664484,9.49511335 C5.51419647,9.29912343 5.15419647,9.18480605 4.76777834,9.18480605 L1.93450882,9.18480605 C0.867808564,9.18480605 0,10.0526146 0,11.1193149 L0,17.7162922 C0,18.7829924 0.867869018,19.650801 1.93450882,19.650801 L4.76777834,19.650801 C5.2480806,19.650801 5.68769773,19.4744584 6.02623678,19.1836776 L9.78468514,19.1836776 C10.1789018,19.192927 10.5921008,19.2146902 10.7500655,19.3780353 C10.8383879,19.456262 10.8947305,19.5412594 10.9753753,19.6569673 C11.7084937,20.7077078 12.8117683,20.7028715 13.0505592,20.7064987 C13.0542469,20.7066196 13.057995,20.7064987 13.0617431,20.7064987 C13.0617431,20.7064987 19.6927557,20.7393249 20.1385995,20.7064987 C22.2124534,20.5540353 22.9877683,18.935335 23.1076474,18.1317884 C23.1480907,17.8662771 24.0968463,11.6087456 23.9841008,9.86351637 Z M5.25140554,17.7163526 C5.25140554,17.9830126 5.03443829,18.1999798 4.76777834,18.1999798 L1.93450882,18.1999798 C1.66784887,18.1999798 1.45088161,17.9830126 1.45088161,17.7163526 L1.45088161,11.1193753 C1.45088161,10.8527154 1.66784887,10.6357481 1.93450882,10.6357481 L4.76777834,10.6357481 C5.03443829,10.6357481 5.25140554,10.8527154 5.25140554,11.1193753 L5.25140554,17.7163526 Z M6.69412594,10.9460554 L6.69962594,10.9460554 C6.69802594,10.9643554 6.69622594,10.9689554 6.69412594,10.9460554 Z M21.6730277,17.9155466 C21.6725441,17.918267 21.6161411,18.2088665 21.4101159,18.5027305 C21.1153451,18.9231839 20.6517884,19.1594358 20.0322015,19.2049572 C19.5875668,19.2376625 13.0676071,19.2556776 13.0676071,19.2556776 C13.0144685,19.2548312 12.4544282,19.2861461 12.1737431,18.8389723 C12.0735718,18.679194 11.935194,18.4895516 11.7121209,18.2919295 C11.1253602,17.7721511 10.0472343,17.7317683 9.73082116,17.7317683 L6.70186398,17.7317683 C6.70192443,17.726267 6.70228715,10.945995 6.70228715,10.945995 L10.0281914,10.945995 C10.4092292,10.945995 10.7252796,10.6511637 10.7518791,10.2710932 C10.75333,10.2504181 10.9128665,8.1858136 12.3381159,6.76056423 C12.4864081,6.61221159 12.6235768,6.47673552 12.7502872,6.35153652 C14.1421662,4.97634257 14.4719395,4.57396474 14.4190428,2.63492191 C14.4203123,1.98613602 14.9484937,1.45861965 15.5975819,1.45861965 C16.2475164,1.45861965 16.7762418,1.98740554 16.7762418,2.6372796 C16.7762418,2.64332494 16.7770882,2.64918892 16.7771486,2.65523426 C16.77733,2.66121914 16.7768463,2.66702267 16.7771486,2.67306801 C16.8645642,4.44284131 16.3630428,5.59302771 16.0311537,6.35413602 C15.7601411,6.97565743 15.5261259,7.51242317 15.8266398,8.04423174 C16.1004332,8.5288262 16.6699043,8.6612796 17.1353955,8.72251889 C17.1668312,8.72662972 17.1983879,8.72874559 17.230005,8.72874559 L21.2991234,8.72874559 C21.528665,8.76864484 22.4738539,8.99135516 22.5361814,9.95703778 C22.6214207,11.2762519 21.9422267,16.1477078 21.6730277,17.9155466 Z" id="Shape" fill="#222222" fill-rule="nonzero"></path>
                        </g>
                        <rect id="Rectangle-4" x="0" y="0" width="24" height="24"></rect>
                    </g>
                </g>
            </g>
        </g>
    </g>
</svg>