<?xml version="1.0" encoding="UTF-8"?>
<svg width="32px" height="32px" viewBox="0 0 32 32" version="1.1" xmlns="http://www.w3.org/2000/svg" xmlns:xlink="http://www.w3.org/1999/xlink">
    <!-- Generator: Sketch 48.1 (47250) - http://www.bohemiancoding.com/sketch -->
    <title>024-like</title>
    <desc>Created with Sketch.</desc>
    <defs></defs>
    <g id="04-Trang-ca-nhan---01-CV-" stroke="none" stroke-width="1" fill="none" fill-rule="evenodd" transform="translate(-50.000000, -2550.000000)">
        <g id="024-like" transform="translate(50.000000, 2550.000000)" fill="#666666" fill-rule="nonzero">
            <path d="M30.753875,12.0181875 C30.0831875,11.1075625 29.0980625,10.5125 27.9799375,10.3428125 C27.7569375,10.3089375 27.528875,10.293375 27.3041875,10.295 L20.2795,10.295 L20.2795,5.7048125 C20.2795,2.559125 17.7203125,0 14.5746875,0 C14.063875,0 13.6009375,0.3008125 13.3935,0.767625 L7.5105625,14.004125 C7.437125,14.1694375 7.3991875,14.34825 7.3991875,14.529125 L7.3991875,30.7071875 C7.3991875,31.421125 7.9779375,31.9998125 8.6918125,31.9998125 L25.2745625,31.9998125 C25.288,31.9999375 25.301375,32 25.31475,32 C26.319,32 27.291125,31.6430625 28.057,30.992 C28.835125,30.3306875 29.348,29.410375 29.50075,28.4028125 L31.530625,15.164375 C31.700375,14.04625 31.4245,12.928875 30.753875,12.0181875 Z M28.9749375,14.7745 L26.9450625,28.013125 C26.8234375,28.8151875 26.124375,29.4146875 25.31475,29.4146875 C25.3086875,29.4146875 25.3023125,29.4146875 25.29625,29.4145625 C25.291375,29.4145625 25.2865625,29.4145 25.2816875,29.4145 L9.9845,29.4146875 L9.9845,14.8035 L15.36925,2.6878125 C16.7058125,3.0400625 17.69425,4.259125 17.69425,5.7048125 L17.69425,11.58775 C17.69425,12.301625 18.2729375,12.880375 18.986875,12.880375 L27.311125,12.880375 C27.316,12.880375 27.320875,12.880375 27.32575,12.8803125 C27.4144375,12.8795 27.5040625,12.8855625 27.5919375,12.898875 C28.027375,12.9649375 28.411,13.1966875 28.6721875,13.5513125 C28.933375,13.9059375 29.04075,14.341 28.9749375,14.7745 Z" id="Shape"></path>
            <path d="M8.6918125,29.4145625 L4.279625,29.4145625 C3.3705,29.4145625 2.6308125,28.674875 2.6308125,27.76575 L2.6308125,17.4706875 C2.6308125,16.5615 3.3705,15.821875 4.279625,15.821875 L8.6918125,15.821875 C9.4056875,15.821875 9.9844375,15.243125 9.9844375,14.52925 C9.9844375,13.815375 9.4056875,13.236625 8.6918125,13.236625 L4.279625,13.236625 C1.9449375,13.236625 0.0455,15.1360625 0.0455,17.47075 L0.0455,27.7658125 C0.0455,30.1005 1.9449375,31.9999375 4.279625,31.9999375 L8.6918125,31.9999375 C9.40575,31.9999375 9.9844375,31.42125 9.9844375,30.7073125 C9.9844375,29.99325 9.4056875,29.4145625 8.6918125,29.4145625 Z" id="Shape"></path>
        </g>
    </g>
</svg>