<?xml version="1.0" encoding="UTF-8"?>
<svg width="16px" height="16px" viewBox="0 0 16 16" version="1.1" xmlns="http://www.w3.org/2000/svg" xmlns:xlink="http://www.w3.org/1999/xlink">
    <!-- Generator: Sketch 48.1 (47250) - http://www.bohemiancoding.com/sketch -->
    <title>16x16/like</title>
    <desc>Created with Sketch.</desc>
    <defs></defs>
    <g id="Symbols" stroke="none" stroke-width="1" fill="none" fill-rule="evenodd">
        <g id="16x16/like" fill="#666666" fill-rule="nonzero">
            <g transform="translate(8.000000, 8.000000) scale(-1, 1) rotate(-180.000000) translate(-8.000000, -8.000000) translate(0.000000, -0.000000)" id="Shape">
                <path d="M15.0955102,2.34599156 C14.9159184,0.877637131 13.8873469,0 12.3395918,0 L5.66530612,0 C4.94367347,0 4.29714286,0.337552743 3.86612245,0.870886076 C3.56571429,0.5907173 3.16734694,0.421940928 2.73306122,0.421940928 L1.7044898,0.421940928 C0.764081633,0.421940928 0,1.21181435 0,2.18059072 L0,8.24303797 C0,9.21518987 0.764081633,10.0050633 1.7044898,10.0050633 L2.73306122,10.0050633 C3.18693878,10.0050633 3.59836735,9.81940928 3.90204082,9.52236287 L4.17306122,9.61012658 C4.17959184,9.61012658 4.18285714,9.61350211 4.18938776,9.61350211 C4.29061224,9.64388186 6.6644898,10.3662447 6.6644898,12.4523207 L6.6644898,15.2708861 C6.6644898,15.5240506 6.8244898,15.7468354 7.05632653,15.8244726 C7.08571429,15.8345992 7.49387755,15.9628692 8.01959184,15.9628692 C8.47673469,15.9628692 9.02204082,15.8649789 9.48897959,15.5105485 C10.1257143,15.0244726 10.4522449,14.2109705 10.4522449,13.0936709 L10.4522449,10.7578059 L13.7469388,10.7578059 C14.9910204,10.7578059 16,9.71139241 16,8.42869198 C16,8.29029536 15.9902041,8.15189873 15.9673469,8.02025316 L15.0955102,2.34599156 Z M2.73306122,8.85063291 L1.7044898,8.85063291 C1.38122449,8.85063291 1.12,8.58059072 1.12,8.2464135 L1.12,2.18059072 C1.12,1.8464135 1.38122449,1.57637131 1.7044898,1.57637131 L2.73306122,1.57637131 C3.05632653,1.57637131 3.31755102,1.8464135 3.31755102,2.18059072 L3.31755102,8.24303797 C3.31755102,8.57721519 3.05632653,8.85063291 2.73306122,8.85063291 Z M13.7469388,9.60337553 L9.89061224,9.60337553 C9.58040816,9.60337553 9.32897959,9.86329114 9.32897959,10.1805907 L9.32897959,13.0970464 C9.32897959,13.8261603 9.15918367,14.3257384 8.82612245,14.578903 C8.52897959,14.8084388 8.1044898,14.8320675 7.78122449,14.7983122 L7.78122449,12.4556962 C7.78122449,9.53924051 4.73795918,8.57383966 4.49959184,8.50295359 L4.41795918,8.47594937 C4.4277551,8.39831224 4.43428571,8.32067511 4.43428571,8.24303797 L4.43428571,2.42700422 C4.43428571,1.72827004 4.98612245,1.15780591 5.66204082,1.15780591 L12.3363265,1.15780591 C13.8220408,1.15780591 13.9428571,2.16708861 13.9820408,2.4978903 C13.9820408,2.50464135 13.9853061,2.51139241 13.9853061,2.51814346 L14.8146939,7.90886076 L14.8604082,8.19915612 C14.8734694,8.27341772 14.8767347,8.35105485 14.8767347,8.42869198 C14.88,9.07679325 14.3706122,9.60337553 13.7469388,9.60337553 Z"></path>
            </g>
        </g>
    </g>
</svg>