<?xml version="1.0" encoding="UTF-8"?>
<svg width="24px" height="24px" viewBox="0 0 24 24" version="1.1" xmlns="http://www.w3.org/2000/svg" xmlns:xlink="http://www.w3.org/1999/xlink">
    <!-- Generator: Sketch 48.1 (47250) - http://www.bohemiancoding.com/sketch -->
    <title>link-programing-symbol-of-interface</title>
    <desc>Created with Sketch.</desc>
    <defs></defs>
    <g id="03-Baiviet---02-Tao-bai-viet" stroke="none" stroke-width="1" fill="none" fill-rule="evenodd" transform="translate(-718.000000, -414.000000)">
        <g id="link-programing-symbol-of-interface" transform="translate(718.000000, 414.000000)" fill="#666666" fill-rule="nonzero">
            <path d="M13.7325098,8.4494902 C13.4700392,8.2807451 13.164,8.23498039 12.8812549,8.298 C12.6014902,8.36023529 12.3450196,8.52898039 12.1777647,8.7892549 C12.0097647,9.05098039 11.9640392,9.3554902 12.0263137,9.6367451 C12.0877647,9.918 12.256549,10.1759608 12.5175294,10.3432549 C13.6027843,11.0385098 14.2500392,12.2190196 14.2500392,13.5 C14.2500392,14.502 13.8600392,15.4432549 13.1520392,16.1512157 L8.65203922,20.6512157 C7.94329412,21.3599608 7.00129412,21.75 6.00003922,21.75 C3.93227451,21.75 2.25003922,20.0677647 2.25003922,18 C2.25003922,16.998 2.64003922,16.0567451 3.34803922,15.3487843 L5.48254902,13.2135294 C5.70752941,12.988549 5.81705882,12.6922745 5.81254902,12.3975294 C5.80729412,12.1162745 5.69780392,11.8372549 5.48254902,11.6227451 C5.26278431,11.4029804 4.97478431,11.2927451 4.68756863,11.2927451 C4.39956863,11.2927451 4.11156863,11.4022353 3.89258824,11.6227451 L1.75807843,13.758 C0.624,14.8905098 0,16.3972549 0,18 C0,21.3082353 2.69176471,24 6,24 C7.6027451,24 9.1094902,23.376 10.2427451,22.242 L14.7427451,17.742 C15.8759608,16.6102745 16.5,15.1027451 16.5,13.5 C16.5,11.4487451 15.4657647,9.56101961 13.7325098,8.4494902 Z M18,0 C16.3972549,0 14.8905098,0.624 13.7572549,1.758 L9.2572549,6.258 C8.124,7.38972549 7.5,8.8972549 7.5,10.4992549 C7.5,12.5505098 8.53427451,14.4389804 10.2674902,15.5505098 C10.53,15.7184706 10.836,15.7642353 11.1187451,15.7012549 C11.3984706,15.6397647 11.6549804,15.4710196 11.8222353,15.2107451 C11.9902353,14.9482745 12.036,14.6437647 11.9737255,14.3625098 C11.9122353,14.0812549 11.7434902,13.8232549 11.4824706,13.6567451 C10.3979608,12.9607451 9.74996078,11.7802353 9.74996078,10.4992549 C9.74996078,9.4972549 10.1399608,8.556 10.8479608,7.848 L15.3479608,3.348 C16.0567451,2.64 16.9987451,2.25 18,2.25 C20.0677647,2.25 21.75,3.93223529 21.75,5.9992549 C21.75,7.0012549 21.36,7.9425098 20.652,8.6505098 L18.5174902,10.7850196 C18.2925098,11.01 18.1829804,11.3062745 18.1874902,11.6010196 C18.1927451,11.8822745 18.3022353,12.1612941 18.5174902,12.3757647 C18.7372549,12.5955294 19.0252157,12.7050196 19.3132549,12.7050196 C19.6012549,12.7050196 19.8892549,12.5955294 20.1082353,12.3757647 L22.2427451,10.2405098 C23.376,9.1094902 24,7.602 24,5.9992549 C24,2.69176471 21.3082353,0 18,0 Z" id="Shape"></path>
        </g>
    </g>
</svg>