<?xml version="1.0" encoding="UTF-8"?>
<svg width="20px" height="20px" viewBox="0 0 20 20" version="1.1" xmlns="http://www.w3.org/2000/svg" xmlns:xlink="http://www.w3.org/1999/xlink">
    <!-- Generator: Sketch 48.1 (47250) - http://www.bohemiancoding.com/sketch -->
    <title>Group</title>
    <desc>Created with Sketch.</desc>
    <defs></defs>
    <g id="01-Home-New" stroke="none" stroke-width="1" fill="none" fill-rule="evenodd" transform="translate(-679.000000, -136.000000)">
        <g id="Header" fill="#000000" fill-rule="nonzero">
            <g id="Menu-bar" transform="translate(0.000000, 121.000000)">
                <g id="Group" transform="translate(679.000000, 15.000000)">
                    <path d="M9.97792969,12 C4.3828125,12 0,14.5926172 0,17.9023828 L0,18.92125 C0,19.3674609 0.36171875,19.7291406 0.807890625,19.7291406 C1.2540625,19.7291406 1.61578125,19.3674609 1.61578125,18.92125 L1.61578125,17.9023828 C1.61578125,15.5787891 5.44515625,13.6157813 9.97792969,13.6157813 C14.5107031,13.6157813 18.3400781,15.5787891 18.3400781,17.9023828 L18.3400781,18.92125 C18.3400781,19.3674609 18.7017578,19.7291406 19.1479688,19.7291406 C19.5941797,19.7291406 19.9558594,19.3674219 19.9558594,18.92125 L19.9558594,17.9023828 C19.9558594,14.5926172 15.5730469,12 9.97792969,12 Z" id="Shape"></path>
                    <path d="M14.7145611,4.16714844 C14.5597564,3.12308594 14.0833892,2.17671875 13.337022,1.43035156 C12.5906548,0.683984375 11.6442876,0.207695313 10.6001861,0.0528515625 C10.1249517,-0.0176171875 9.64292045,-0.0176171875 9.16756889,0.0528515625 C6.50393608,0.447851563 4.65827202,2.93621094 5.05323295,5.59984375 C5.24456108,6.89015625 5.92694389,8.02875 6.9746392,8.80582031 C7.82518608,9.43667969 8.83374077,9.76800781 9.87358452,9.76796875 C10.1146392,9.76796875 10.3574126,9.75015625 10.6001861,9.71414063 C13.263858,9.31914063 15.109522,6.83078125 14.7145611,4.16714844 Z M10.363233,8.11582031 C9.50002983,8.24390625 8.63831108,8.02804687 7.93729545,7.50804687 C7.23624077,6.98808594 6.77967827,6.22621094 6.65167045,5.36285156 C6.38737358,3.58050781 7.62237358,1.91546875 9.40467827,1.65117187 C9.56374077,1.62761719 9.72385795,1.61582031 9.8840142,1.61582031 C10.0441705,1.61582031 10.2043267,1.62761719 10.3633111,1.65117187 C11.7973736,1.86382812 12.9037017,2.97019531 13.116358,4.40421875 C13.3805376,6.18652344 12.1455376,7.8515625 10.363233,8.11582031 Z" id="Shape"></path>
                </g>
            </g>
        </g>
    </g>
</svg>