<?xml version="1.0" encoding="UTF-8"?>
<svg width="48px" height="43px" viewBox="0 0 48 43" version="1.1" xmlns="http://www.w3.org/2000/svg" xmlns:xlink="http://www.w3.org/1999/xlink">
    <!-- Generator: Sketch 48.1 (47250) - http://www.bohemiancoding.com/sketch -->
    <title>connections</title>
    <desc>Created with Sketch.</desc>
    <defs></defs>
    <g id="01-Home-New" stroke="none" stroke-width="1" fill="none" fill-rule="evenodd" transform="translate(-90.000000, -1250.000000)">
        <g id="Group-31" transform="translate(0.000000, 1160.000000)">
            <g id="Thong-tin" transform="translate(20.000000, 70.000000)">
                <g id="Thong-bao">
                    <g id="Group-6" transform="translate(70.000000, 20.000000)">
                        <g id="connections">
                            <path d="M14.8478194,19.3163702 C17.7734357,19.3163702 20.1603251,16.4214176 20.2173183,12.8137246 C20.2179684,12.769842 22.4566321,8.65462754 22.4566321,8.65462754 C22.3539142,8.08133634 22.064614,6.88881264 21.3118916,5.7298781 C19.9776433,3.6756298 17.806158,2.63859142 14.8531287,2.65191874 C14.851395,2.65191874 14.849553,2.65191874 14.8478194,2.65191874 C14.8469526,2.65191874 14.8460858,2.65181038 14.8453273,2.65181038 C14.8444605,2.65181038 14.8435937,2.65191874 14.8427269,2.65191874 C14.826149,2.65191874 14.8093544,2.65181038 14.7928849,2.65181038 C11.8666185,2.65181038 9.71062754,3.68722348 8.38396388,5.7298781 C7.63210835,6.88762077 7.34248307,8.07884424 7.23933183,8.6549526 C7.23933183,8.6549526 9.47788713,12.7637743 9.47875395,12.8137246 C9.54333183,16.4130745 11.927079,19.3163702 14.8478194,19.3163702 Z" id="Shape"></path>
                            <path d="M25.1735621,23.5011467 C25.1735621,22.7829887 25.7557381,22.200921 26.4737878,22.200921 C27.1919458,22.200921 27.7740135,22.7829887 27.7740135,23.5011467 C27.7740135,25.3034763 28.3564063,26.9394853 29.2991783,28.1388352 C29.3272415,28.1705824 29.3534628,28.2036298 29.3780587,28.2378691 C30.3481354,29.4217246 31.6783747,30.1540767 33.1447043,30.1540767 C34.6106005,30.1540767 35.9408397,29.4219413 36.9109165,28.2380858 C36.9357291,28.2035214 36.9624921,28.1699323 36.990772,28.1377517 C37.9330023,26.9386185 38.51507,25.3028262 38.51507,23.5011467 C38.51507,22.7829887 39.097246,22.200921 39.8152957,22.200921 C40.5333454,22.200921 41.1155214,22.7829887 41.1155214,23.5011467 C41.1155214,24.4604966 40.9889661,25.3860406 40.7544921,26.2568668 L43.6856343,24.8848036 C42.8572822,22.036009 39.9221309,13.9747178 33.1445959,13.4934176 C26.3465824,13.9759097 23.4248668,22.0351422 22.6018239,24.8840451 L25.5344831,26.2568668 C25.3001174,25.3860406 25.1735621,24.4604966 25.1735621,23.5011467 Z" id="Shape"></path>
                            <path d="M41.975079,35.314781 C39.6335892,33.6638194 36.497553,32.7545282 33.1448126,32.7545282 C29.7919639,32.7545282 26.6558194,33.6638194 24.3144379,35.314781 C22.5674763,36.5465282 21.4426727,38.0721264 21.0516298,39.7062935 L45.2377788,39.7062935 C44.8466275,38.0721264 43.7220406,36.5465282 41.975079,35.314781 Z" id="Shape" fill="#ECA829" fill-rule="nonzero"></path>
                            <path d="M24.9803702,28.8686953 L20.5208126,26.7810745 C19.9741761,26.5252551 19.6754492,25.9265011 19.7997291,25.3358736 C19.8154402,25.2614357 20.0257517,24.2811738 20.5119278,22.8630609 C18.7689752,22.2420948 16.8345643,21.91693 14.8480361,21.91693 C11.4951874,21.91693 8.35915124,22.8262212 6.01755305,24.4771828 C4.27069977,25.7088217 3.14600451,27.2346366 2.75496163,28.8686953 L24.9803702,28.8686953 Z" id="Shape" fill="#ECA829" fill-rule="nonzero"></path>
                            <path d="M43.4735892,33.1895621 C41.9162438,32.0914131 40.0780497,31.2702122 38.0786275,30.7607404 C38.3165688,30.5423025 38.5446501,30.3099955 38.7596208,30.0620858 L45.7684876,26.7811828 C46.3153409,26.5253634 46.6139594,25.9266095 46.4896795,25.3359819 C46.4604244,25.1969661 45.7514763,21.8923341 43.8289842,18.4760993 C41.1860587,13.7799007 37.5193138,11.157237 33.2249932,10.8916659 C33.2206591,10.8913409 33.2164334,10.8916659 33.2120993,10.8914492 C33.1906456,10.8903657 33.1688668,10.8906907 33.1469797,10.8906907 C33.1232506,10.8905824 33.0994131,10.8902573 33.076009,10.8914492 C33.0722167,10.8916659 33.0684244,10.8914492 33.0644153,10.8916659 C28.7700948,11.157237 25.1032415,13.7799007 22.460316,18.4760993 C22.0843341,19.1441986 21.755377,19.8076388 21.4682438,20.4444244 C20.9195485,20.2459233 20.3553589,20.0729932 19.7786005,19.9259594 C21.4675937,18.3772822 22.6048578,16.0543205 22.7898149,13.4219052 C22.8198284,13.3799729 22.8489752,13.3368488 22.8744379,13.2903657 L24.9435305,9.52946275 C25.0657517,9.30723251 25.1203612,9.05390519 25.1005327,8.80101129 C25.0933815,8.71053725 24.9111332,6.55985553 23.5612822,4.42076749 C22.3017968,2.42492099 19.7782754,0.0514672686 14.9029707,0.0514672686 C14.8846591,0.0514672686 14.8661309,0.0515756208 14.8478194,0.0515756208 C14.8292912,0.0515756208 14.8113047,0.0514672686 14.7926682,0.0514672686 C9.91790519,0.0514672686 7.39373363,2.42502935 6.13424831,4.42076749 C4.78439729,6.55985553 4.60214898,8.71053725 4.59510609,8.80101129 C4.5751693,9.05390519 4.62977878,9.30723251 4.75210835,9.52946275 L6.8212009,13.2903657 C6.84666366,13.3367404 6.87570203,13.3797562 6.90571558,13.4216885 C7.09056433,16.0525869 8.22652822,18.3743567 9.91389616,19.9232506 C7.91447404,20.432614 6.07627991,21.2538149 4.51893454,22.3518555 C1.60480361,24.4064289 0,27.1826275 0,30.168921 C0,30.887079 0.58206772,31.4691467 1.30022573,31.4691467 L26.0228262,31.4691467 C24.8642167,31.9297517 23.7855711,32.5057517 22.8158194,33.1895621 C19.9016885,35.2442438 18.2967765,38.0203341 18.2967765,41.0066275 C18.2967765,41.7246772 18.8789526,42.3068533 19.5970023,42.3068533 L46.6921896,42.3068533 C47.4103476,42.3068533 47.9924153,41.7246772 47.9924153,41.0066275 C47.9925237,38.0202257 46.3876117,35.2441354 43.4735892,33.1895621 Z M21.0515214,39.7062935 C21.4425643,38.0721264 22.5673679,36.5465282 24.3143296,35.314781 C26.6557111,33.6638194 29.7918555,32.7545282 33.1447043,32.7545282 C36.4974447,32.7545282 39.6334808,33.6638194 41.9749707,35.314781 C43.7219323,36.5465282 44.8465192,38.0721264 45.2375621,39.7062935 L21.0515214,39.7062935 Z M6.0174447,24.4770745 C8.35904289,22.8261129 11.495079,21.9168217 14.8479278,21.9168217 C16.8345643,21.9168217 18.7689752,22.2420948 20.5118194,22.8629526 C20.0256433,24.2810655 19.8152235,25.2614357 19.7996208,25.3357652 C19.6754492,25.9263928 19.9740677,26.5251467 20.5207043,26.7809661 L24.9802619,28.8685869 L2.75485327,28.8685869 C3.14589616,27.2346366 4.27059142,25.7087133 6.0174447,24.4770745 Z M33.1445959,13.4934176 C39.9221309,13.9747178 42.8573905,22.036009 43.6856343,24.8848036 L40.7544921,26.2568668 C40.9889661,25.3860406 41.1155214,24.4604966 41.1155214,23.5011467 C41.1155214,22.7829887 40.5333454,22.200921 39.8152957,22.200921 C39.097246,22.200921 38.51507,22.7829887 38.51507,23.5011467 C38.51507,25.3028262 37.9330023,26.9386185 36.990772,28.1377517 C36.9623837,28.1699323 36.9357291,28.2035214 36.9109165,28.2380858 C35.9408397,29.4219413 34.6106005,30.1540767 33.1447043,30.1540767 C31.6784831,30.1540767 30.3481354,29.4217246 29.3780587,28.2378691 C29.3534628,28.2036298 29.3271332,28.1705824 29.2991783,28.1388352 C28.3564063,26.9395937 27.7740135,25.3034763 27.7740135,23.5011467 C27.7740135,22.7829887 27.1919458,22.200921 26.4737878,22.200921 C25.7557381,22.200921 25.1735621,22.7829887 25.1735621,23.5011467 C25.1735621,24.4604966 25.3001174,25.3860406 25.5345914,26.2568668 L22.6019323,24.8840451 C23.4248668,22.0351422 26.3465824,13.9759097 33.1445959,13.4934176 Z M9.47853725,12.813833 C9.47767043,12.7638826 7.23911512,8.65506095 7.23911512,8.65506095 C7.34226637,8.0789526 7.63189165,6.88762077 8.38374718,5.72998646 C9.71041084,3.68722348 11.8664018,2.65191874 14.7926682,2.65191874 C14.8091377,2.65191874 14.8259323,2.65202709 14.8425102,2.65202709 C14.843377,2.65202709 14.8442438,2.65191874 14.8451106,2.65191874 C14.8459774,2.65191874 14.8468442,2.65202709 14.8476027,2.65202709 C14.8493363,2.65202709 14.8511783,2.65202709 14.852912,2.65202709 C17.8059413,2.63869977 19.977535,3.67573815 21.3116749,5.72998646 C22.0643973,6.88892099 22.3536975,8.0814447 22.4564153,8.65473589 C22.4564153,8.65473589 20.2177517,12.769842 20.2171016,12.813833 C20.1602167,16.421526 17.773219,19.3164786 14.8476027,19.3164786 C11.927079,19.3163702 9.54333183,16.4130745 9.47853725,12.813833 Z" id="Shape" fill="#222222" fill-rule="nonzero"></path>
                        </g>
                    </g>
                </g>
            </g>
        </g>
    </g>
</svg>