<?xml version="1.0" encoding="UTF-8"?>
<svg width="20px" height="20px" viewBox="0 0 20 20" version="1.1" xmlns="http://www.w3.org/2000/svg" xmlns:xlink="http://www.w3.org/1999/xlink">
    <!-- Generator: Sketch 48.1 (47250) - http://www.bohemiancoding.com/sketch -->
    <title>Group 4</title>
    <desc>Created with Sketch.</desc>
    <defs></defs>
    <g id="01-Home-New" stroke="none" stroke-width="1" fill="none" fill-rule="evenodd" transform="translate(-1232.000000, -136.000000)">
        <g id="Header" fill="#222222" fill-rule="nonzero">
            <g id="Menu-bar" transform="translate(0.000000, 121.000000)">
                <g id="Group-4" transform="translate(1232.000000, 15.000000)">
                    <path d="M0.76185257,17.8244898 C0.345526039,18.0285714 0.112872978,18.477551 0.182260733,18.9346939 C0.251648488,19.3959184 0.606750529,19.7510204 1.06797502,19.8244898 C1.32511788,19.8653061 1.59858726,19.8857143 1.88021992,19.8857143 C2.60675053,19.8857143 3.97001583,19.7428571 5.33736277,18.8367347 C6.7659342,19.5918367 8.37001583,19.9877551 9.99450563,19.9877551 C12.6638934,19.9877551 15.1740975,18.9469388 17.0598118,17.0612245 C18.945526,15.1755102 19.9863424,12.6653061 19.9863424,9.99591837 C19.9863424,7.32653061 18.945526,4.81632653 17.0598118,2.93061224 C15.1700158,1.03673469 12.6638934,0 9.99450563,0 C7.32511788,0 4.81491379,1.03673469 2.92511788,2.92653061 C-0.695290288,6.54693878 -0.976922941,12.3142857 2.2026689,16.2571429 C1.80675053,17.0204082 1.32103624,17.5469388 0.76185257,17.8244898 Z M3.91695461,3.91428571 C5.54144441,2.28979592 7.69654645,1.39591837 9.99450563,1.39591837 C12.2924648,1.39591837 14.4475669,2.28979592 16.0720567,3.91428571 C17.6965464,5.53877551 18.590424,7.69387755 18.590424,9.99183673 C18.590424,12.2857143 17.6965464,14.444898 16.0720567,16.0693878 C14.4475669,17.6938776 12.2924648,18.5877551 9.99450563,18.5877551 C8.45981175,18.5877551 6.95777094,18.1795918 5.64348522,17.4081633 C5.53328114,17.3428571 5.41083216,17.3102041 5.28838318,17.3102041 C5.13736277,17.3102041 4.98634237,17.3591837 4.85981175,17.4571429 C3.91695461,18.1877551 2.94144441,18.4122449 2.27613828,18.4693878 C2.83124032,17.9714286 3.29654645,17.2857143 3.67205665,16.4285714 C3.78226073,16.1795918 3.73736277,15.8897959 3.5536893,15.6857143 C0.549607672,12.2938776 0.708791345,7.12244898 3.91695461,3.91428571 Z" id="Shape"></path>
                    <path d="M5.70204082,10.4 L13.9795918,10.4 C14.3673469,10.4 14.6816327,10.0857143 14.6816327,9.70204082 C14.6816327,9.31836735 14.3673469,9 13.9795918,9 L5.70204082,9 C5.31428571,9 5,9.31428571 5,9.70204082 C5,10.0897959 5.31428571,10.4 5.70204082,10.4 Z" id="Shape"></path>
                    <path d="M5.70204082,7.40408163 L13.9795918,7.40408163 C14.3673469,7.40408163 14.6816327,7.08979592 14.6816327,6.70204082 C14.6816327,6.31428571 14.3673469,6 13.9795918,6 L5.70204082,6 C5.31428571,6 5,6.31428571 5,6.70204082 C5,7.08979592 5.31428571,7.40408163 5.70204082,7.40408163 Z" id="Shape"></path>
                    <path d="M5.70204082,13.4 L13.9795918,13.4 C14.3673469,13.4 14.6816327,13.0857143 14.6816327,12.7020408 C14.6816327,12.3142857 14.3673469,12 13.9795918,12 L5.70204082,12 C5.31428571,12 5,12.3142857 5,12.7020408 C5,13.0857143 5.31428571,13.4 5.70204082,13.4 Z" id="Shape"></path>
                </g>
            </g>
        </g>
    </g>
</svg>