<?xml version="1.0" encoding="UTF-8"?>
<svg width="8px" height="10px" viewBox="0 0 8 10" version="1.1" xmlns="http://www.w3.org/2000/svg" xmlns:xlink="http://www.w3.org/1999/xlink">
    <!-- Generator: Sketch 48.1 (47250) - http://www.bohemiancoding.com/sketch -->
    <title>ghim</title>
    <desc>Created with Sketch.</desc>
    <defs></defs>
    <g id="Sponsor" stroke="none" stroke-width="1" fill="none" fill-rule="evenodd" transform="translate(0.000000, -3.000000)">
        <g fill="#1E87F0" id="ghim">
            <g transform="translate(0.000000, 3.000000)">
                <path d="M1.63745417,4.6041981 L0.122845671,6.16043953 C0.0470837067,6.2353532 0,6.34154395 0,6.45832856 C0,6.68742634 0.182094546,6.87504299 0.405257799,6.87504299 L3.27486329,6.87504299 L3.27486329,9.47922734 C3.27486329,9.76668302 3.50413165,10 3.78654378,10 C4.06897843,10 4.29826933,9.76668302 4.29826933,9.47922734 L4.29826933,6.87504299 L7.37245239,6.87504299 C7.59545795,6.87504299 7.77777778,6.68742634 7.77777778,6.45832856 C7.77777778,6.34383699 7.73258643,6.23966412 7.65907728,6.164567 L6.14030108,4.60201971 L6.14030108,1.04163705 L6.44738146,1.04163705 C6.72977106,1.04163705 6.95910701,0.808274211 6.95910701,0.520818524 C6.95910701,0.233362837 6.72977106,0 6.44738146,0 L1.33041884,0 C1.04800671,0 0.81873835,0.233362837 0.81873835,0.520818524 C0.81873835,0.808297141 1.04800671,1.04163705 1.33041884,1.04163705 L1.63745417,1.04163705 L1.63745417,4.6041981 Z M3.47955351,1.45835149 L3.47955351,4.16663991 C3.47955351,4.39585235 3.29536385,4.58333142 3.07017307,4.58333142 C2.84502734,4.58333142 2.66081516,4.39585235 2.66081516,4.16663991 L2.66081516,1.45835149 C2.66081516,1.22913905 2.84502734,1.04163705 3.07017307,1.04163705 C3.29534132,1.04163705 3.47955351,1.22913905 3.47955351,1.45835149 Z" id="Shape"></path>
            </g>
        </g>
    </g>
</svg>