<?xml version="1.0" encoding="UTF-8"?>
<svg width="32px" height="32px" viewBox="0 0 32 32" version="1.1" xmlns="http://www.w3.org/2000/svg" xmlns:xlink="http://www.w3.org/1999/xlink">
    <!-- Generator: Sketch 48.1 (47250) - http://www.bohemiancoding.com/sketch -->
    <title>111-settings</title>
    <desc>Created with Sketch.</desc>
    <defs></defs>
    <g id="04-Trang-ca-nhan---01-CV-" stroke="none" stroke-width="1" fill="none" fill-rule="evenodd" transform="translate(-50.000000, -1937.000000)">
        <g id="111-settings" transform="translate(50.000000, 1937.000000)" fill="#666666" fill-rule="nonzero">
            <path d="M27.0294581,20.5204375 C27.1726784,20.185625 27.5002261,19.96825 27.8587135,19.966875 L27.9787914,19.966875 C30.1617778,19.966875 31.937809,18.187375 31.937809,16.000125 C31.937809,13.8129375 30.1617778,12.0334375 27.9787914,12.0334375 L27.7570994,12.0334375 C27.4494503,12.0321875 27.1676881,11.8764375 27.0014503,11.6256875 C26.9830487,11.534625 26.9549162,11.4455625 26.9173021,11.3600625 C26.7666589,11.0181875 26.8367096,10.624875 27.0957661,10.3564375 L27.1665029,10.2855625 C27.168499,10.2836875 27.1704327,10.28175 27.1723041,10.2798125 C27.9195945,9.5301875 28.3309162,8.5338125 28.33023,7.47425 C28.3296686,6.4165 27.9185965,5.4221875 27.1728655,4.6738125 C27.1708694,4.6718125 27.1689357,4.669875 27.1670019,4.667875 C26.4193372,3.9195625 25.4258402,3.507625 24.369154,3.507625 C24.3684678,3.507625 24.3676569,3.507625 24.3669084,3.507625 C23.3094113,3.5081875 22.3154152,3.921375 21.5686238,4.6705 L21.4947057,4.744625 C21.2268538,5.0040625 20.834308,5.0743125 20.493037,4.9234375 C20.4887953,4.921625 20.4845536,4.91975 20.4803119,4.9179375 C20.146152,4.7744375 19.9292008,4.44625 19.9278285,4.087125 L19.9278285,3.96675 C19.9278285,1.7795625 18.1517973,6.25e-05 15.9688109,6.25e-05 C13.7858246,6.25e-05 12.0098558,1.7795625 12.0098558,3.96675 L12.0098558,4.1889375 C12.0086082,4.4971875 11.8531618,4.7795 11.6029006,4.946 C11.5120156,4.9644375 11.4231267,4.9926875 11.3377934,5.030375 C10.9966472,5.1813125 10.604039,5.1110625 10.3361248,4.8515625 L10.2596491,4.774875 C9.51192203,4.0265625 8.51854971,3.614625 7.46186355,3.614625 C7.46111501,3.614625 7.46024172,3.614625 7.45955556,3.614625 C6.40205848,3.6151875 5.40806238,4.028375 4.65865107,4.780125 C3.91129825,5.5296875 3.50003899,6.5260625 3.50066277,7.585625 C3.50122417,8.6451875 3.91360624,9.6410625 4.66127096,10.3893125 L4.73518908,10.463375 C4.99418324,10.7318125 5.0642963,11.1250625 4.9137154,11.467 C4.90267446,11.4919375 4.8925692,11.5171875 4.8831501,11.54275 C4.75440156,11.893375 4.43246784,12.126875 4.06075634,12.1403125 L3.95889279,12.1403125 C1.77603119,12.1403125 0,13.9198125 0,16.107 C0,18.2943125 1.77603119,20.07375 3.95907992,20.073625 L4.18077193,20.073625 C4.54443665,20.075125 4.87185965,20.292375 5.01507992,20.6271875 C5.01688889,20.6315 5.01876023,20.63575 5.0205692,20.6399375 C5.17121248,20.9818125 5.10109942,21.375125 4.84204288,21.643625 L4.76812476,21.717625 C4.76644055,21.719375 4.76475634,21.721125 4.76300975,21.722875 C4.01727875,22.472125 3.60695517,23.4675 3.60751657,24.5258125 C3.60807797,25.585375 4.02046004,26.5813125 4.76862378,27.3300625 C4.77043275,27.3319375 4.77230409,27.3338125 4.77417544,27.335625 C6.31890838,28.8780625 8.82788304,28.8755 10.3689981,27.3295625 L10.4429786,27.2554375 C10.7108304,26.996 11.1033762,26.925625 11.4445848,27.076625 C11.4694113,27.0875625 11.4946121,27.09775 11.5201248,27.1071875 C11.8701287,27.2361875 12.1031111,27.5588125 12.1165848,27.93125 L12.1165848,28.03325 C12.1165848,30.2205 13.892616,32 16.07554,32 C18.2585887,32 20.0345575,30.2205 20.0346199,28.033375 L20.0346199,27.8113125 C20.036117,27.4469375 20.2529435,27.1188125 20.5871033,26.9753125 C20.5914074,26.9734375 20.5955867,26.971625 20.5997661,26.9698125 C20.941037,26.818875 21.3335828,26.8890625 21.6014971,27.148625 L21.6780351,27.22525 C22.4256998,27.9735625 23.4191345,28.3855625 24.4758207,28.3855 C24.4765692,28.3855 24.4773801,28.3855 24.4781287,28.3855 C25.5356257,28.384875 26.5296218,27.97175 27.2790331,27.2200625 C28.8217076,25.6725625 28.8203353,23.156 27.2764756,21.61075 L27.2024951,21.5366875 C26.9435634,21.26825 26.8734503,20.875 27.0240312,20.533 C27.0259025,20.528875 27.0277115,20.5246875 27.0294581,20.5204375 Z M25.3617154,23.3485625 C25.3650214,23.3519375 25.3683899,23.3553125 25.3716959,23.3586875 L25.4522261,23.439375 C25.9899883,23.97775 25.9905497,24.854125 25.4511657,25.395125 C25.190924,25.65625 24.8447251,25.800125 24.4764444,25.8003125 C24.4761326,25.8003125 24.4759454,25.8003125 24.4756335,25.8003125 C24.1076023,25.8003125 23.7615906,25.6568125 23.4996647,25.394625 L23.4196335,25.3144375 C23.4162651,25.3110625 23.4128967,25.30775 23.4094659,25.304375 C22.3845926,24.3 20.8757895,24.0246875 19.5637271,24.6020625 C18.2875322,25.15325 17.4597739,26.4080625 17.4541598,27.806125 L17.4541598,28.033375 C17.4541598,28.795125 16.8356803,29.4148125 16.0754152,29.4148125 C15.3152125,29.4148125 14.6967329,28.7950625 14.6967329,28.033375 L14.6967329,27.9130625 C14.6967329,27.903 14.6966082,27.8929375 14.6963587,27.8828125 C14.662924,26.45075 13.782269,25.2039375 12.4489981,24.6953125 C11.1442963,24.1359375 9.65121248,24.4149375 8.6345731,25.4113125 C8.63120468,25.414625 8.62783626,25.418 8.62446784,25.4213125 L8.54387524,25.5020625 C8.00667446,26.0409375 7.13194542,26.0415 6.59405848,25.5031875 C6.59249903,25.501625 6.59087719,25.5000625 6.58938012,25.4985625 C6.33044834,25.2380625 6.18785185,24.8923125 6.18760234,24.5245625 C6.18735283,24.1555625 6.33063548,23.808625 6.59087719,23.5475625 C6.59237427,23.546125 6.59380897,23.5445625 6.59530604,23.543125 L6.67253021,23.4656875 C6.67589864,23.4623125 6.67926706,23.4589375 6.6825731,23.4555 C7.68492788,22.4288125 7.9597037,20.9170625 7.38364133,19.6024375 C6.83359064,18.323625 5.58109942,17.4941875 4.18569981,17.4885625 L3.95883041,17.4885625 C3.19862768,17.4885625 2.58014815,16.8688125 2.58014815,16.107125 C2.58014815,15.3454375 3.19869006,14.72575 3.95883041,14.7256875 L4.07897076,14.7256875 C4.08901365,14.7256875 4.09911891,14.7255625 4.10916179,14.7253125 C5.5385575,14.6918125 6.78287719,13.8094375 7.29051072,12.4735625 C7.84867057,11.1663125 7.57033918,9.6704375 6.57590643,8.6518125 C6.57260039,8.6484375 6.56923197,8.6450625 6.56586355,8.6416875 L6.48533333,8.5609375 C6.22477973,8.300125 6.08118519,7.9533125 6.08099805,7.5843125 C6.08074854,7.215375 6.22403119,6.868375 6.48639376,6.6051875 C6.74669786,6.344125 7.09283431,6.20025 7.46111501,6.2000625 C7.4614269,6.2000625 7.46161404,6.2000625 7.46192593,6.2000625 C7.82995712,6.2000625 8.17596881,6.3435625 8.43789474,6.60575 L8.5179883,6.6859375 C8.52129435,6.6893125 8.52472515,6.6926875 8.52809357,6.696 C9.48977778,7.6385 10.877692,7.939 12.1294347,7.4953125 C12.2477037,7.480125 12.3636647,7.4485625 12.4738246,7.40125 C13.7538869,6.8515625 14.5846394,5.59475 14.590191,4.19425 L14.590191,3.9669375 C14.590191,3.20525 15.2086706,2.5855625 15.9688733,2.5855625 C16.729076,2.5855625 17.3476179,3.2053125 17.3476179,3.967 L17.3476179,4.0925 C17.3531072,5.4854375 18.1809903,6.740375 19.4573099,7.2915625 C20.7694971,7.8689375 22.2781131,7.5934375 23.302924,6.589125 C23.3062924,6.5858125 23.3096608,6.5824375 23.3130916,6.5790625 L23.3936842,6.498375 C23.6539259,6.2373125 24.0001248,6.0934375 24.3683431,6.09325 C24.368655,6.09325 24.3689045,6.09325 24.369154,6.09325 C24.736,6.09325 25.0811384,6.235875 25.341193,6.495 C25.3426277,6.4965 25.3441248,6.4979375 25.3455595,6.4994375 C25.6061754,6.76025 25.74977,7.1070625 25.7499571,7.4760625 C25.7502066,7.8440625 25.6077349,8.1900625 25.3489279,8.450875 C25.3476803,8.452125 25.3463704,8.453375 25.3450604,8.4546875 L25.2650292,8.5349375 C25.2616608,8.53825 25.2583548,8.541625 25.2549864,8.5450625 C24.3143236,9.508625 24.0144094,10.8993125 24.457232,12.1534375 C24.4724522,12.272 24.5039532,12.3881875 24.5511735,12.4985625 C25.0997895,13.781125 26.354152,14.6135 27.751922,14.6190625 L27.978729,14.6190625 C28.7389942,14.6190625 29.3574737,15.23875 29.3574737,16.0004375 C29.3574737,16.762125 28.7389318,17.381875 27.978729,17.381875 L27.8535361,17.381875 C26.4633138,17.387375 25.210885,18.216875 24.6607096,19.495625 C24.0845224,20.8099375 24.3593606,22.3218125 25.3617154,23.3485625 Z" id="Shape"></path>
            <path d="M15.9688109,10.696375 C13.0500741,10.696375 10.6753996,13.075625 10.6753996,16.000125 C10.6753996,18.924625 13.0500117,21.303875 15.9688109,21.303875 C18.8876101,21.303875 21.2622222,18.924625 21.2622222,16.000125 C21.2622222,13.075625 18.8875478,10.696375 15.9688109,10.696375 Z M15.9688109,18.7185 C14.4727953,18.7185 13.2556725,17.4990625 13.2556725,16.0000625 C13.2556725,14.501125 14.4727953,13.281625 15.9688109,13.281625 C17.4648889,13.281625 18.6819493,14.501125 18.6819493,16.0000625 C18.6819493,17.499 17.4648889,18.7185 15.9688109,18.7185 Z" id="Shape"></path>
        </g>
    </g>
</svg>