<?xml version="1.0" encoding="UTF-8"?>
<svg width="16px" height="16px" viewBox="0 0 16 16" version="1.1" xmlns="http://www.w3.org/2000/svg" xmlns:xlink="http://www.w3.org/1999/xlink">
    <!-- Generator: Sketch 48.1 (47250) - http://www.bohemiancoding.com/sketch -->
    <title>happy-face</title>
    <desc>Created with Sketch.</desc>
    <defs></defs>
    <g id="03-Baiviet---01-View" stroke="none" stroke-width="1" fill="none" fill-rule="evenodd" transform="translate(-470.000000, -2888.000000)">
        <g id="happy-face" transform="translate(470.000000, 2888.000000)" fill="#666666" fill-rule="nonzero">
            <path d="M7.98253435,0 C3.58090585,0 0.000122137405,3.58078372 0.000122137405,7.98241221 C0.000122137405,12.3840814 3.58090585,15.9647837 7.98253435,15.9647837 C12.3838779,15.9647837 15.9646616,12.3840814 15.9646616,7.98241221 C15.9646616,3.58078372 12.3838779,0 7.98253435,0 Z M7.98253435,14.8731603 C4.18292112,14.8731603 1.09170483,11.781944 1.09170483,7.98241221 C1.09170483,4.18279898 4.18292112,1.0915827 7.98253435,1.0915827 C11.7821069,1.0915827 14.8730789,4.18279898 14.8730789,7.98241221 C14.8730382,11.7819847 11.7820662,14.8731603 7.98253435,14.8731603 Z" id="Shape"></path>
            <path d="M13.6625751,7.43662087 L2.30249364,7.43662087 C2.00105852,7.43662087 1.75670229,7.6809771 1.75670229,7.98241221 C1.75670229,11.4152875 4.54941476,14.2082443 7.98253435,14.2082443 C11.4154504,14.2082443 14.2083664,11.4152468 14.2083664,7.98241221 C14.2083664,7.6809771 13.9637659,7.43662087 13.6625751,7.43662087 Z M7.98253435,13.1166616 C5.33581679,13.1166616 3.15045293,11.1034707 2.87710941,8.52824427 L13.088,8.52824427 C12.8146158,11.1034707 10.6292519,13.1166616 7.98253435,13.1166616 Z" id="Shape"></path>
            <path d="M5.04191349,6.26796947 C5.91763868,6.26796947 6.63002545,5.5555827 6.63002545,4.67985751 C6.63002545,3.80413232 5.91763868,3.09174555 5.04191349,3.09174555 C4.16643257,3.09174555 3.4540458,3.80413232 3.4540458,4.67985751 C3.4540458,5.5555827 4.16643257,6.26796947 5.04191349,6.26796947 Z M5.04191349,4.18336896 C5.31562341,4.18336896 5.53840204,4.4061883 5.53840204,4.67985751 C5.53840204,4.95352672 5.3155827,5.17634606 5.04191349,5.17634606 C4.76824427,5.17634606 4.54566921,4.95352672 4.54566921,4.67985751 C4.54566921,4.4061883 4.76824427,4.18336896 5.04191349,4.18336896 Z" id="Shape"></path>
            <path d="M10.9229109,6.26796947 C11.7986361,6.26796947 12.5110229,5.5555827 12.5110229,4.67985751 C12.5110229,3.80413232 11.7986361,3.09174555 10.9229109,3.09174555 C10.04743,3.09174555 9.33504326,3.80413232 9.33504326,4.67985751 C9.33504326,5.5555827 10.04743,6.26796947 10.9229109,6.26796947 Z M10.9229109,4.18336896 C11.1966209,4.18336896 11.4193995,4.4061883 11.4193995,4.67985751 C11.4193995,4.95352672 11.1965802,5.17634606 10.9229109,5.17634606 C10.6492417,5.17634606 10.4266667,4.95352672 10.4266667,4.67985751 C10.426626,4.4061883 10.649201,4.18336896 10.9229109,4.18336896 Z" id="Shape"></path>
        </g>
    </g>
</svg>