<?xml version="1.0" encoding="UTF-8"?>
<svg width="23px" height="24px" viewBox="0 0 23 24" version="1.1" xmlns="http://www.w3.org/2000/svg" xmlns:xlink="http://www.w3.org/1999/xlink">
    <!-- Generator: Sketch 48.1 (47250) - http://www.bohemiancoding.com/sketch -->
    <title>icon</title>
    <desc>Created with Sketch.</desc>
    <defs></defs>
    <g id="01-Home-New" stroke="none" stroke-width="1" fill="none" fill-rule="evenodd" transform="translate(-1288.000000, -1173.000000)">
        <g id="Group-31" transform="translate(0.000000, 1160.000000)">
            <g id="Title">
                <g id="Group-14" transform="translate(1288.000000, 12.000000)">
                    <g id="icon" transform="translate(0.000000, 1.000000)">
                        <g id="favorite" transform="translate(0.750000, 0.000000)" fill-rule="nonzero">
                            <path d="M13.0542315,6.66877975 L10.9264557,2.37654684 L8.7986189,6.66877975 C8.69193716,6.88398987 8.48571429,7.03309367 8.24720615,7.06760506 L3.48924955,7.75594937 L6.93211573,11.0969316 C7.10471067,11.2644456 7.18350136,11.505843 7.14273282,11.742319 L6.32998644,16.4599899 L10.58566,14.2326076 C10.7990235,14.1209316 11.0538879,14.1209316 11.2672514,14.2326076 L15.5228639,16.4599899 L14.7101786,11.742319 C14.66941,11.5057823 14.7482007,11.2644456 14.9207957,11.0969316 L18.3636618,7.75594937 L13.6057052,7.06760506 C13.3671361,7.03309367 13.1609132,6.88398987 13.0542315,6.66877975 Z" id="Shape" fill="#ECA829"></path>
                            <path d="M20.6339444,7.02154937 C20.547769,6.75761013 20.3185986,6.56524557 20.0426786,6.52532658 L14.1972762,5.67967595 L11.5831465,0.406359494 C11.4598033,0.157549367 11.2051831,0 10.9264557,0 C10.6477283,0 10.393108,0.157549367 10.2697039,0.406359494 L7.65551311,5.67967595 L1.81011076,6.52532658 C1.53419078,6.56524557 1.30508137,6.75761013 1.21884494,7.02154937 C1.13273056,7.28554937 1.20456374,7.57525063 1.4041953,7.76901266 L5.63399186,11.873681 L4.6354679,17.6695899 C4.58835217,17.9431291 4.70125904,18.2195848 4.92676763,18.3826633 C5.15233725,18.5458025 5.45132685,18.5673114 5.69807414,18.4381975 L10.9264557,15.7017114 L16.1547152,18.4381975 C16.2618852,18.4942785 16.3788811,18.5219241 16.4954498,18.5219241 C16.6472943,18.5219241 16.7984064,18.4750177 16.9260217,18.3826633 C17.1515303,18.2195848 17.2644982,17.9431291 17.2173214,17.6695899 L16.2188585,11.873681 L20.4486551,7.76901266 C20.6482866,7.57531139 20.7200588,7.28554937 20.6339444,7.02154937 Z M14.9207346,11.0969924 C14.7481397,11.2645063 14.669349,11.5059038 14.7101175,11.7423797 L15.5228029,16.4600506 L11.2671903,14.2326684 C11.0538269,14.1209924 10.7989625,14.1209924 10.585599,14.2326684 L6.32992541,16.4600506 L7.14267179,11.7423797 C7.18344033,11.505843 7.10464964,11.2645063 6.9320547,11.0969924 L3.48918852,7.75594937 L8.24714512,7.06760506 C8.48565325,7.03309367 8.69187613,6.88398987 8.79855787,6.66877975 L10.9263947,2.37654684 L13.0541704,6.66877975 C13.1608522,6.88398987 13.367075,7.03309367 13.6055832,7.06760506 L18.3635398,7.75594937 L14.9207346,11.0969924 Z" id="Shape" fill="#222222"></path>
                            <path d="M0.778935353,10.8053468 C0.374484629,10.8053468 0.0465664557,11.1318076 0.0465664557,11.5344608 L0.0465664557,23.2556354 C0.0465664557,23.6582886 0.374484629,23.9847494 0.778935353,23.9847494 C1.18338608,23.9847494 1.51130425,23.6582886 1.51130425,23.2556354 L1.51130425,11.5344608 C1.51130425,11.1318076 1.18338608,10.8053468 0.778935353,10.8053468 Z" id="Shape" fill="#222222"></path>
                            <path d="M21.2378436,10.8053468 C20.8333929,10.8053468 20.5054747,11.1318076 20.5054747,11.5344608 L20.5054747,23.2556354 C20.5054747,23.6582886 20.8333929,23.9847494 21.2378436,23.9847494 C21.6422943,23.9847494 21.9702125,23.6582886 21.9702125,23.2556354 L21.9702125,11.5344608 C21.9702125,11.1318076 21.6422943,10.8053468 21.2378436,10.8053468 Z" id="Shape" fill="#222222"></path>
                            <path d="M16.0820886,19.7077063 C15.6776379,19.7077063 15.3497197,20.0341063 15.3497197,20.4368203 L15.3497197,23.2556354 C15.3497197,23.6582886 15.6776379,23.9847494 16.0820886,23.9847494 C16.4865393,23.9847494 16.8144575,23.6582886 16.8144575,23.2556354 L16.8144575,20.4368203 C16.8144575,20.0341063 16.4865393,19.7077063 16.0820886,19.7077063 Z" id="Shape" fill="#222222"></path>
                            <path d="M10.9264557,17.4202329 C10.522005,17.4202329 10.1940868,17.7466329 10.1940868,18.1493468 L10.1940868,23.2556354 C10.1940868,23.6582886 10.522005,23.9847494 10.9264557,23.9847494 C11.3309064,23.9847494 11.6588246,23.6582886 11.6588246,23.2556354 L11.6588246,18.1493468 C11.6588246,17.7466329 11.3309064,17.4202329 10.9264557,17.4202329 Z" id="Shape" fill="#222222"></path>
                            <path d="M5.77070072,19.7077063 C5.36625,19.7077063 5.03833183,20.0341063 5.03833183,20.4368203 L5.03833183,23.2556354 C5.03833183,23.6582886 5.36625,23.9847494 5.77070072,23.9847494 C6.17515145,23.9847494 6.50306962,23.6582886 6.50306962,23.2556354 L6.50306962,20.4368203 C6.50306962,20.0341063 6.17515145,19.7077063 5.77070072,19.7077063 Z" id="Shape" fill="#222222"></path>
                        </g>
                        <rect id="Rectangle-11" x="0" y="0" width="24" height="24"></rect>
                    </g>
                </g>
            </g>
        </g>
    </g>
</svg>