<?xml version="1.0" encoding="UTF-8"?>
<svg width="24px" height="24px" viewBox="0 0 24 24" version="1.1" xmlns="http://www.w3.org/2000/svg" xmlns:xlink="http://www.w3.org/1999/xlink">
    <!-- Generator: Sketch 48.1 (47250) - http://www.bohemiancoding.com/sketch -->
    <title>icon</title>
    <desc>Created with Sketch.</desc>
    <defs></defs>
    <g id="01-Home-New" stroke="none" stroke-width="1" fill="none" fill-rule="evenodd" transform="translate(-478.000000, -1173.000000)">
        <g id="Group-31" transform="translate(0.000000, 1160.000000)">
            <g id="Title">
                <g id="Group-16" transform="translate(478.000000, 12.000000)">
                    <g id="icon" transform="translate(0.000000, 1.000000)">
                        <path d="M11.6899946,1.56501877 C6.12855764,1.56501877 1.60394638,6.08950134 1.60394638,11.6509383 C1.60394638,17.2123753 6.12855764,21.7368579 11.6899946,21.7368579 C17.2514316,21.7368579 21.7759142,17.2123753 21.7759142,11.6509383 C21.7759142,6.08950134 17.2514316,1.56501877 11.6899946,1.56501877 Z M11.6899946,20.9113351 C6.58378552,20.9113351 2.42953351,16.7571475 2.42953351,11.6509383 C2.42953351,6.54472922 6.58378552,2.39054155 11.6899946,2.39054155 C16.7962038,2.39054155 20.9503914,6.54472922 20.9503914,11.6509383 C20.9503914,16.7571475 16.7962681,20.9113351 11.6899946,20.9113351 Z" id="Shape"></path>
                        <path d="M11.6899946,3.93477748 C7.43523861,3.93477748 3.97376944,7.39624665 3.97376944,11.6509383 C3.97376944,15.90563 7.43523861,19.3670992 11.6899946,19.3670992 C15.9446863,19.3670992 19.4061555,15.90563 19.4061555,11.6509383 C19.4061555,7.39624665 15.9446863,3.93477748 11.6899946,3.93477748 Z M16.5306595,13.9077105 C16.4513887,13.9077105 16.3707024,13.8954209 16.2911099,13.8694906 L13.4169008,12.9322681 C13.0244075,13.4598177 12.3964826,13.8023807 11.6899303,13.8023807 C10.503571,13.8023807 9.53848794,12.8372332 9.53848794,11.650874 C9.53848794,11.1468097 9.71317962,10.6830885 10.0045255,10.3160107 L7.58702413,6.87024129 C7.34206971,6.52124397 7.42655228,6.03969973 7.77567828,5.79474531 C8.1246756,5.54979088 8.60628418,5.63427346 8.85117426,5.98339946 L11.3385523,9.52870777 C11.4528901,9.50972654 11.570252,9.49956032 11.6899303,9.49956032 C12.8060268,9.49956032 13.726134,10.3539732 13.8310134,11.4430456 L16.7697587,12.4013083 C17.1752493,12.5335335 17.3967185,12.9693298 17.2644933,13.374756 C17.1583271,13.7005898 16.8558499,13.9077105 16.5306595,13.9077105 Z" id="Shape"></path>
                        <path d="M23.3201501,11.6509383 C23.3201501,5.23798391 18.1028204,0.0207828418 11.6899946,0.0207828418 C5.27704021,0.0207828418 0.0597104558,5.23798391 0.0597104558,11.6509383 C0.0597104558,15.1118928 1.57981769,18.2238499 3.98676676,20.3562466 L2.49008043,22.8144772 C2.26828954,23.1786595 2.38378552,23.6537051 2.74796783,23.875496 C2.87337265,23.951807 3.01203217,23.9882252 3.14882574,23.9882252 C3.40935121,23.9882252 3.66357105,23.8562574 3.8089866,23.6174799 L5.21546381,21.307689 C7.0673244,22.5533083 9.29520643,23.2810938 11.6899946,23.2810938 C14.0847185,23.2810938 16.3125362,22.5533727 18.1643968,21.307689 L19.570874,23.6174799 C19.7162895,23.8563861 19.9705094,23.9882252 20.2310992,23.9882252 C20.3678928,23.9882252 20.5064879,23.951807 20.6319571,23.875496 C20.9961394,23.6537051 21.1116354,23.1786595 20.8899088,22.8144772 L19.3930938,20.3562466 C21.8000429,18.2238499 23.3201501,15.1118928 23.3201501,11.6509383 Z" id="Shape" fill="#222222" fill-rule="nonzero"></path>
                        <path d="M11.6899946,21.7368579 C6.12855764,21.7368579 1.60394638,17.2123753 1.60394638,11.6509383 C1.60394638,6.08950134 6.12855764,1.56501877 11.6899946,1.56501877 C17.2514316,1.56501877 21.7759142,6.08950134 21.7759142,11.6509383 C21.7759142,17.2123753 17.2514316,21.7368579 11.6899946,21.7368579 Z" id="Path" fill="#FFFFFF"></path>
                        <path d="M11.6899946,11.0437962 C11.3552172,11.0437962 11.0827882,11.3160965 11.0827882,11.6509383 C11.0827882,11.9857158 11.3551528,12.2582091 11.6899946,12.2582091 C12.0247721,12.2582091 12.2970724,11.9857802 12.2970724,11.6509383 C12.2971367,11.3161609 12.0247721,11.0437962 11.6899946,11.0437962 Z" id="Shape"></path>
                        <path d="M11.6899946,2.39054155 C6.58378552,2.39054155 2.42953351,6.54472922 2.42953351,11.6509383 C2.42953351,16.7571475 6.58372118,20.9113351 11.6899946,20.9113351 C16.7962681,20.9113351 20.9503914,16.7571475 20.9503914,11.6509383 C20.9503914,6.54472922 16.7962681,2.39054155 11.6899946,2.39054155 Z" id="Path" fill="#ECA829"></path>
                        <path d="M11.6899946,19.3670992 C7.43523861,19.3670992 3.97376944,15.90563 3.97376944,11.6509383 C3.97376944,7.39624665 7.43523861,3.93477748 11.6899946,3.93477748 C15.9446863,3.93477748 19.4061555,7.39624665 19.4061555,11.6509383 C19.4061555,15.90563 15.9446863,19.3670992 11.6899946,19.3670992 Z" id="Path" fill="#ECA829"></path>
                        <path d="M16.7698231,12.4013083 L13.8310777,11.4430456 C13.7261984,10.3539732 12.8060268,9.49956032 11.6899946,9.49956032 C11.5703164,9.49956032 11.4529544,9.50972654 11.3386166,9.52870777 L8.85123861,5.98339946 C8.60634853,5.63427346 8.12473995,5.54985523 7.77574263,5.79474531 C7.42661662,6.03969973 7.34219839,6.52124397 7.58708847,6.87024129 L10.0045898,10.3160107 C9.71324397,10.6830885 9.53855228,11.1468097 9.53855228,11.650874 C9.53855228,12.8372332 10.5036354,13.8023807 11.6899946,13.8023807 C12.3964826,13.8023807 13.0244718,13.4598177 13.4169651,12.9322681 L16.2911743,13.8694906 C16.3707024,13.8953566 16.4513887,13.9077105 16.5307239,13.9077105 C16.8559142,13.9077105 17.1583914,13.7005898 17.264622,13.374756 C17.3968472,12.9693298 17.1753137,12.5334692 16.7698231,12.4013083 Z" id="Shape" fill="#222222" fill-rule="nonzero"></path>
                        <path d="M11.6899946,12.2581448 C11.3552172,12.2581448 11.0827882,11.9857158 11.0827882,11.650874 C11.0827882,11.3160965 11.3551528,11.0437319 11.6899946,11.0437319 C12.0247721,11.0437319 12.2970724,11.3160322 12.2970724,11.650874 C12.2971367,11.9857158 12.0247721,12.2581448 11.6899946,12.2581448 Z" id="Path" fill="#FFFFFF"></path>
                    </g>
                </g>
            </g>
        </g>
    </g>
</svg>