<?xml version="1.0" encoding="UTF-8"?>
<svg width="35px" height="27px" viewBox="0 0 35 27" version="1.1" xmlns="http://www.w3.org/2000/svg" xmlns:xlink="http://www.w3.org/1999/xlink">
    <!-- Generator: Sketch 48.1 (47250) - http://www.bohemiancoding.com/sketch -->
    <title>012-user-1</title>
    <desc>Created with Sketch.</desc>
    <defs></defs>
    <g id="04-Trang-ca-nhan---01-CV-" stroke="none" stroke-width="1" fill="none" fill-rule="evenodd" transform="translate(-50.000000, -3244.000000)">
        <g id="012-user-1" transform="translate(50.000000, 3244.000000)" fill="#666666" fill-rule="nonzero">
            <path d="M22.4785,18.2445 C20.021375,16.876 16.770875,16.122375 13.326,16.122375 C9.881,16.122375 6.630625,16.8760625 4.1735,18.2445 C1.4821875,19.7433125 0,21.8229375 0,24.10025 L0,25.43725 C0,26.151125 0.57875,26.7298125 1.292625,26.7298125 C2.0065,26.7298125 2.58525,26.151125 2.58525,25.4371875 L2.58525,24.1001875 C2.58525,22.8214375 3.6225625,21.510375 5.43125,20.503125 C7.5101875,19.3453125 10.3138125,18.7076875 13.325875,18.7076875 C16.3379375,18.7076875 19.141625,19.3453125 21.2205625,20.503125 C23.02925,21.510375 24.0665625,22.8215 24.0665625,24.10025 L24.0665625,25.43725 C24.0665625,26.1511875 24.64525,26.729875 25.3591875,26.729875 C26.073125,26.729875 26.6518125,26.151125 26.651875,25.43725 L26.651875,24.10025 C26.6519375,21.8229375 25.16975,19.7433125 22.4785,18.2445 Z" id="Shape"></path>
            <path d="M19.95275,5.6868125 C19.7421875,4.2670625 19.0944375,2.980125 18.0795,1.96525 C17.0645625,0.95025 15.7776875,0.3025625 14.357875,0.092 C13.7115625,-0.0038125 13.056125,-0.0038125 12.40975,0.092 C8.787625,0.6291875 6.27775,4.0129375 6.814875,7.6350625 C7.0750625,9.3896875 8.003,10.9379375 9.4276875,11.9946875 C10.58425,12.852625 11.95575,13.3030625 13.36975,13.3030625 C13.6975,13.3030625 14.0276875,13.2788125 14.357875,13.229875 C17.98,12.6926875 20.489875,9.308875 19.95275,5.6868125 Z M13.978625,10.6725625 C12.907125,10.8315 11.8378125,10.5635625 10.96775,9.91825 C10.0976875,9.272875 9.5310625,8.327375 9.3721875,7.2558125 C9.044125,5.0438125 10.5769375,2.9773125 12.788875,2.6493125 C12.98625,2.6200625 13.185,2.6054375 13.38375,2.6054375 C13.5825,2.6054375 13.7813125,2.6200625 13.978625,2.6493125 C15.7583125,2.91325 17.1314375,4.2863125 17.395375,6.0660625 C17.723375,8.2780625 16.1905625,10.3445625 13.978625,10.6725625 Z" id="Shape"></path>
            <path d="M33.8164219,8.3785625 C33.3116094,7.8738125 32.4931719,7.8738125 31.9883594,8.3785625 L25.4946719,13.8721875 L22.2066094,10.584125 C21.7018594,10.0793125 20.8833594,10.0793125 20.3786094,10.584125 C19.8737969,11.0889375 19.8737969,11.907375 20.3786094,12.4121875 L24.5807344,16.6143125 C24.8331094,16.86675 25.1639844,16.9929375 25.4947969,16.9929375 C25.8256094,16.9929375 26.1564219,16.86675 26.4088594,16.6143125 L33.8164219,10.206625 C34.3212344,9.7018125 34.3212344,8.883375 33.8164219,8.3785625 Z" id="Shape"></path>
        </g>
    </g>
</svg>